<?xml version="1.0" encoding="UTF-8"?>
<svg id="Layer_2" data-name="Layer 2" xmlns="http://www.w3.org/2000/svg" viewBox="0 0 42.06 42.38">
  <defs>
    <style>
      .cls-1 {
        fill: #2f5641;
      }

      .cls-1, .cls-2 {
        stroke-width: 0px;
      }

      .cls-2 {
        fill: #ff4d06;
      }
    </style>
  </defs>
  <g id="Layer_1-2" data-name="Layer 1">
    <g>
      <g id="Layer_1-2" data-name="Layer 1-2">
        <g>
          <path class="cls-1" d="m6.58,20.58h0c-.72-.88-2.24.05-1.52.94,1.53,1.88,3.18,3.66,4.98,5.29,7.42,6.78,16.86,11.28,26.94,12,1.15.08,1.1-1.7-.03-1.78-2.88-.21-5.73-.74-8.49-1.57-8.53-2.57-16.27-7.98-21.88-14.88h0Z"/>
          <path class="cls-1" d="m3.26,14.3c-.36-1.09-2.07-.58-1.71.51.81,2.44,1.84,4.8,3.07,7.06.55,1.01,2.06.06,1.52-.94-1.16-2.12-2.12-4.33-2.88-6.63h0Z"/>
          <path class="cls-1" d="m1.66,17.44h0c-.61-.97-2.13-.03-1.52.94.79,1.25,1.75,2.4,2.88,3.35.97.82,2.25,1.91,3.61,1.75,1.13-.13,1.11-1.92-.03-1.78-.97.11-2.06-.98-2.73-1.59-.87-.79-1.6-1.68-2.22-2.67h0Z"/>
          <path class="cls-1" d="m6.88,14.14h0c-.51-1.03-2.02-.08-1.52.94-.11-.21.07.3.1.43.06.27.09.55.13.82.1.77.17,1.55.25,2.32.14,1.43.21,2.91.57,4.31.29,1.11,2,.6,1.71-.51-.37-1.42-.41-2.93-.55-4.38-.13-1.26-.12-2.77-.69-3.94h0Z"/>
          <path class="cls-1" d="m1.87,23.2h0c-.97-.63-1.81.95-.85,1.57,2.87,1.86,6.28,2.75,9.69,2.67,1.15-.03,1.11-1.81-.03-1.78-3.13.07-6.18-.75-8.81-2.46h0Z"/>
          <path class="cls-1" d="m4.88,28.13h0c-1.1-.34-1.52,1.4-.43,1.73,3.47,1.07,7.13,1.46,10.75,1.16,1.14-.09,1.11-1.88-.03-1.78-3.48.29-6.95-.08-10.29-1.11h0Z"/>
          <path class="cls-1" d="m7.88,31.91c-1.13-.23-1.55,1.5-.43,1.73,3.65.76,7.33.06,10.93-.66,1.13-.23.61-1.93-.51-1.71-3.27.65-6.67,1.33-9.99.64h0Z"/>
          <path class="cls-1" d="m12.42,34.97h0c-1.15.02-1.11,1.81.03,1.78,3.15-.06,6.25-.68,9.18-1.86,1.06-.43.56-2.14-.51-1.71-2.78,1.12-5.7,1.73-8.7,1.79h0Z"/>
          <path class="cls-1" d="m16.92,37.31c-1.13.19-.61,1.9.51,1.71,2.87-.48,5.67-1.27,8.37-2.36,1.05-.43.56-2.14-.51-1.71-2.7,1.1-5.5,1.89-8.37,2.36h0Z"/>
          <path class="cls-1" d="m24.22,38.01c-1.08.39-.57,2.1.51,1.71,1.98-.71,3.9-1.59,5.73-2.62,1-.57.06-2.08-.94-1.52-1.7.96-3.46,1.77-5.3,2.43h0Z"/>
          <path class="cls-1" d="m10.22,16.1h0c-.26-1.12-1.97-.61-1.71.51.76,3.34,1.26,6.73,1.49,10.15.08,1.15,1.86,1.11,1.78-.03-.24-3.58-.77-7.13-1.56-10.63h0Z"/>
          <path class="cls-1" d="m14.05,20.03h0c-.6-.98-2.12-.04-1.52.94,1.55,2.53,1.39,5.57,1.25,8.42-.06,1.15,1.73,1.11,1.78-.03.16-3.2.21-6.5-1.52-9.33h0Z"/>
          <path class="cls-1" d="m17.78,21.68c-.29-1.11-2-.6-1.71.51.83,3.13,1.24,6.33,1.25,9.57,0,1.15,1.79,1.11,1.78-.03,0-3.39-.45-6.76-1.32-10.04h0Z"/>
          <path class="cls-1" d="m21.02,22.14h0c-.63-.96-2.15-.02-1.52.94.96,1.45,1.31,3.13,1.49,4.84.19,1.78.3,3.57.44,5.35.09,1.14,1.87,1.11,1.78-.03-.29-3.65-.1-7.92-2.2-11.1h0Z"/>
          <path class="cls-1" d="m24.69,23.07h0c-.35-1.09-2.06-.59-1.71.51,1.22,3.82,2.08,7.73,2.55,11.71.13,1.13,1.92,1.11,1.78-.03-.48-4.14-1.35-8.21-2.62-12.18h0Z"/>
          <path class="cls-1" d="m28.68,23.93h0c-.49-1.04-2-.08-1.52.94,1.76,3.7,2.61,7.76,2.56,11.85-.01,1.15,1.77,1.11,1.78-.03.05-4.43-.93-8.77-2.83-12.76h0Z"/>
        </g>
      </g>
      <g id="Layer_1-2-2" data-name="Layer 1-2">
        <g>
          <path class="cls-1" d="m35.64,7.05c.48-.99-.98-1.94-1.46-.94-1.02,2.13-1.89,4.32-2.59,6.57-2.88,9.34-2.91,19.5.64,28.66.4,1.04,1.95.26,1.55-.77-1.01-2.62-1.73-5.34-2.14-8.11-1.29-8.56.25-17.61,3.99-25.4h0Z"/>
          <path class="cls-1" d="m39.78,1.53c.81-.77-.35-2.06-1.16-1.29-1.81,1.73-3.45,3.61-4.93,5.63-.66.9.8,1.84,1.46.94,1.38-1.9,2.93-3.66,4.63-5.28h0Z"/>
          <path class="cls-1" d="m36.36,1.42h0c.6-.94-.86-1.88-1.46-.94-.77,1.21-1.38,2.53-1.74,3.93-.32,1.2-.74,2.77-.04,3.9.59.94,2.14.17,1.55-.77-.5-.81.01-2.22.27-3.06.33-1.09.81-2.1,1.42-3.06h0Z"/>
          <path class="cls-1" d="m41.42,4.63h0c.69-.87-.77-1.81-1.46-.94.15-.18-.23.19-.33.26-.22.16-.44.31-.67.46-.64.41-1.29.79-1.94,1.18-1.2.72-2.47,1.39-3.55,2.29-.86.72.3,2.01,1.16,1.29,1.09-.91,2.41-1.57,3.62-2.3,1.06-.64,2.39-1.25,3.17-2.24h0Z"/>
          <path class="cls-1" d="m31.38,4h0c.15-1.11-1.58-1.2-1.73-.1-.45,3.3.19,6.66,1.67,9.62.5,1,2.05.23,1.55-.77-1.36-2.72-1.91-5.74-1.5-8.76h0Z"/>
          <path class="cls-1" d="m28.3,8.69h0c-.16-1.11-1.86-.75-1.7.34.5,3.5,1.68,6.87,3.45,9.93.56.96,2.11.2,1.55-.77-1.7-2.94-2.82-6.14-3.3-9.5h0Z"/>
          <path class="cls-1" d="m26.23,12.89h0c-.26-1.09-1.96-.74-1.7.34.85,3.52,2.99,6.47,5.12,9.33.67.9,1.95-.27,1.29-1.16-1.93-2.6-3.94-5.31-4.71-8.52h0Z"/>
          <path class="cls-1" d="m25.42,18.15h0c-.5-1-2.05-.23-1.55.77,1.36,2.74,3.2,5.21,5.44,7.29.81.75,2.11-.4,1.29-1.16-2.14-1.98-3.89-4.29-5.18-6.9h0Z"/>
          <path class="cls-1" d="m25.23,23.08c-.63-.92-1.92.25-1.29,1.16,1.61,2.33,3.47,4.46,5.55,6.37.82.75,2.11-.4,1.29-1.16-2.09-1.91-3.94-4.04-5.55-6.37h0Z"/>
          <path class="cls-1" d="m27.65,29.78h0c-.79-.79-2.08.37-1.29,1.16,1.45,1.45,3.01,2.76,4.68,3.95.91.65,1.85-.82.94-1.46-1.55-1.09-2.99-2.31-4.33-3.64h0Z"/>
          <path class="cls-1" d="m41.09,8.39c.88-.69-.28-1.98-1.16-1.29-2.62,2.06-5.39,3.9-8.3,5.52-.97.54-.2,2.1.77,1.55,3.04-1.7,5.95-3.63,8.69-5.79h0Z"/>
          <path class="cls-1" d="m39.23,13.38h0c.61-.93-.85-1.87-1.46-.94-1.58,2.41-4.31,3.54-6.88,4.6-1.04.43-.25,1.98.77,1.55,2.87-1.19,5.8-2.52,7.56-5.21h0Z"/>
          <path class="cls-1" d="m39.32,17.34h0c.85-.72-.3-2.01-1.16-1.29-2.41,2.03-5.04,3.72-7.89,5.07-1.01.48-.23,2.03.77,1.55,2.98-1.41,5.75-3.21,8.27-5.33h0Z"/>
          <path class="cls-1" d="m40.26,20.39h0c.58-.95-.88-1.89-1.46-.94-.88,1.44-2.21,2.45-3.63,3.32-1.49.9-3.01,1.74-4.52,2.61-.97.55-.2,2.11.77,1.55,3.09-1.77,6.92-3.38,8.84-6.54h0Z"/>
          <path class="cls-1" d="m40.97,23.99h0c.82-.76-.34-2.06-1.16-1.29-2.85,2.66-5.93,5.04-9.23,7.1-.94.59-.17,2.14.77,1.55,3.44-2.14,6.66-4.6,9.62-7.36h0Z"/>
          <path class="cls-1" d="m41.87,27.86h0c.71-.86-.76-1.79-1.46-.94-2.52,3.08-5.74,5.52-9.35,7.17-1.02.47-.24,2.02.77,1.55,3.91-1.79,7.32-4.46,10.04-7.78h0Z"/>
        </g>
      </g>
      <g id="Layer_1-2-3" data-name="Layer 1-2">
        <g>
          <path class="cls-2" d="m30.42,35.18l-.06-.27c-.62,1.16-1.25,2.33-2.08,3.3-.83.97-1.9,1.73-3.13,1.91-1.97.29-4-.94-5.73-2.33-.01.88-.6,1.69-.32,2.55.21.66.85,1.04,1.43,1.28,2.28.97,4.83,1.06,6.84-.1s3.35-3.7,3.04-6.36h0Z"/>
          <path class="cls-2" d="m29.84,35.02l-.28-.02c1.7,1.7,3.81,2.58,5.82,2.8,1.05.12,2.1.06,3.02-.37.92-.43,1.69-1.26,2.01-2.41.04-.16.08-.34.03-.51-.04-.15-.13-.27-.22-.39-.35-.49-.7-.98-1.06-1.47-.83.81-1.44,1.93-2.32,2.67-1.86,1.56-4.65,1.12-7-.29h0Z"/>
          <path class="cls-2" d="m18.61,32.06c.13.75.78,1.28,1.39,1.65,2.67,1.59,5.69,1.87,8.59,1.97.59.02,1.19.03,1.72-.21l-.02-.15c-.39-.73-.88-1.4-1.45-1.97-.4-.4-.83-.74-1.28-1.06-1.1-.8-2.27-1.48-3.49-1.89-1.22-.42-2.51-.57-3.71-.32-.46.1-.92.26-1.27.59-.35.33-.57.86-.48,1.4h0Zm2.93.18c-.15-.33-.09-.68.23-.83.18-.08.4-.05.61-.02,1.78.31,3.54.93,5.11,2.05.1.07,1.77,1.39,1.64,1.54-.06.07-.53-.12-.61-.14-.36-.09-.72-.18-1.08-.28-.97-.27-1.95-.41-2.91-.7-.9-.27-2.21-.53-2.86-1.43-.05-.06-.09-.13-.11-.2h0Z"/>
          <path class="cls-2" d="m30.12,34.95c.08.63.34.73.71.42,1.06-.88,2.15-1.76,3.08-2.83.83-.95,1.66-1.98,1.99-3.39.11-.47.16-.99.06-1.51-.18-.9-.9-1.54-1.61-1.45-.85.11-1.58.78-2.08,1.53-.23.34-.43.71-.61,1.1-.39.85-.69,1.78-.96,2.68-.33,1.05-.74,2.21-.59,3.44h0Zm.49-.44c-.25.18.59-1.95.88-2.54.28-.57.56-1.14.88-1.69.22-.37.45-.73.75-1.02.13-.12.26-.24.43-.28.25-.06.55.09.63.39.04.15.02.3-.02.44-.18.67-.69,1.15-1.13,1.6-.76.79-2.09,2.72-2.12,2.76,0,0-.28.33-.29.33Z"/>
        </g>
      </g>
    </g>
  </g>
</svg>