<?xml version="1.0" encoding="UTF-8"?>
<svg id="Layer_2" data-name="Layer 2" xmlns="http://www.w3.org/2000/svg" viewBox="0 0 42.06 42.38">
  <defs>
    <style>
      .cls-1 {
        fill: #2f5641;
      }

      .cls-1, .cls-2 {
        stroke-width: 0px;
      }

      .cls-2 {
        fill: #ff4d06;
      }
    </style>
  </defs>
  <g id="Layer_1-2" data-name="Layer 1">
    <g>
      <g id="Layer_1-2" data-name="Layer 1-2">
        <g>
          <path class="cls-1" d="m35.49,20.58c-5.6,6.9-13.35,12.32-21.88,14.88-2.76.83-5.61,1.37-8.49,1.57-1.13.08-1.18,1.87-.03,1.78,10.08-.72,19.52-5.22,26.94-12,1.79-1.64,3.45-3.41,4.98-5.29.72-.89-.8-1.82-1.52-.94h0Z"/>
          <path class="cls-1" d="m38.8,14.3c-.76,2.29-1.72,4.5-2.88,6.63-.55,1.01.97,1.95,1.52.94,1.23-2.26,2.26-4.62,3.07-7.06.36-1.09-1.35-1.6-1.71-.51h0Z"/>
          <path class="cls-1" d="m40.4,17.44c-.62.99-1.35,1.88-2.22,2.67-.67.61-1.76,1.71-2.73,1.59-1.14-.13-1.17,1.65-.03,1.78,1.36.16,2.64-.93,3.61-1.75,1.13-.95,2.1-2.1,2.88-3.35.61-.97-.9-1.91-1.52-.94h0Z"/>
          <path class="cls-1" d="m35.18,14.14c-.57,1.16-.56,2.67-.69,3.94-.14,1.45-.18,2.97-.55,4.38-.29,1.11,1.42,1.62,1.71.51.36-1.39.43-2.88.57-4.31.07-.77.15-1.55.25-2.32.04-.28.07-.55.13-.82.03-.13.2-.64.1-.43.5-1.02-1.01-1.97-1.52-.94h0Z"/>
          <path class="cls-1" d="m40.19,23.2c-2.63,1.71-5.68,2.53-8.81,2.46-1.15-.03-1.19,1.76-.03,1.78,3.41.08,6.82-.81,9.69-2.67.96-.62.11-2.2-.85-1.57h0Z"/>
          <path class="cls-1" d="m37.18,28.13c-3.34,1.03-6.81,1.39-10.29,1.11-1.14-.09-1.18,1.69-.03,1.78,3.62.3,7.28-.09,10.75-1.16,1.09-.34.68-2.07-.43-1.73h0Z"/>
          <path class="cls-1" d="m34.18,31.91c-3.32.69-6.72.02-9.99-.64-1.12-.22-1.63,1.48-.51,1.71,3.59.72,7.28,1.42,10.93.66,1.12-.24.7-1.97-.43-1.73h0Z"/>
          <path class="cls-1" d="m29.64,34.97c-3-.06-5.92-.67-8.7-1.79-1.06-.43-1.56,1.29-.51,1.71,2.92,1.18,6.03,1.8,9.18,1.86,1.15.02,1.19-1.76.03-1.78h0Z"/>
          <path class="cls-1" d="m25.14,37.31c-2.87-.47-5.67-1.26-8.37-2.36-1.06-.43-1.56,1.28-.51,1.71,2.7,1.1,5.5,1.89,8.37,2.36,1.12.18,1.64-1.52.51-1.71h0Z"/>
          <path class="cls-1" d="m17.84,38.01c-1.84-.66-3.6-1.47-5.3-2.43-1-.56-1.94.95-.94,1.52,1.83,1.04,3.75,1.91,5.73,2.62,1.08.39,1.58-1.32.51-1.71h0Z"/>
          <path class="cls-1" d="m31.84,16.1c-.8,3.5-1.32,7.05-1.56,10.63-.08,1.15,1.71,1.18,1.78.03.23-3.42.73-6.81,1.49-10.15.25-1.11-1.46-1.63-1.71-.51h0Z"/>
          <path class="cls-1" d="m28.01,20.03c-1.73,2.83-1.68,6.13-1.52,9.33.06,1.14,1.84,1.19,1.78.03-.14-2.85-.3-5.88,1.25-8.42.6-.98-.92-1.92-1.52-.94h0Z"/>
          <path class="cls-1" d="m24.28,21.68c-.87,3.28-1.31,6.65-1.32,10.04,0,1.15,1.78,1.19,1.78.03,0-3.24.42-6.44,1.25-9.57.29-1.11-1.42-1.62-1.71-.51h0Z"/>
          <path class="cls-1" d="m21.04,22.14c-2.1,3.18-1.91,7.45-2.2,11.1-.09,1.14,1.69,1.18,1.78.03.14-1.78.25-3.57.44-5.35.18-1.71.53-3.39,1.49-4.84.63-.96-.88-1.9-1.52-.94h0Z"/>
          <path class="cls-1" d="m17.37,23.07c-1.27,3.97-2.14,8.05-2.62,12.18-.13,1.14,1.65,1.17,1.78.03.46-3.98,1.33-7.9,2.55-11.71.35-1.09-1.36-1.6-1.71-.51h0Z"/>
          <path class="cls-1" d="m13.38,23.93c-1.9,4-2.88,8.33-2.83,12.76.01,1.14,1.8,1.19,1.78.03-.05-4.09.8-8.15,2.56-11.85.49-1.03-1.02-1.98-1.52-.94h0Z"/>
        </g>
      </g>
      <g id="Layer_1-2-2" data-name="Layer 1-2">
        <g>
          <path class="cls-1" d="m6.43,7.05c3.74,7.79,5.28,16.84,3.99,25.4-.42,2.77-1.13,5.5-2.14,8.11-.4,1.03,1.15,1.81,1.55.77,3.55-9.16,3.51-19.32.64-28.66-.69-2.25-1.57-4.44-2.59-6.57-.48-1-1.93-.05-1.46.94h0Z"/>
          <path class="cls-1" d="m2.28,1.53c1.7,1.62,3.24,3.38,4.63,5.28.66.9,2.12-.04,1.46-.94C6.89,3.85,5.24,1.97,3.44.24c-.81-.77-1.96.52-1.16,1.29h0Z"/>
          <path class="cls-1" d="m5.7,1.42c.61.96,1.09,1.97,1.42,3.06.26.84.77,2.25.27,3.06-.59.95.97,1.71,1.55.77.7-1.13.28-2.71-.04-3.9-.37-1.39-.98-2.71-1.74-3.93-.6-.94-2.06,0-1.46.94h0Z"/>
          <path class="cls-1" d="m.64,4.64c.78.99,2.11,1.6,3.17,2.24,1.21.73,2.53,1.39,3.62,2.3.86.71,2.02-.58,1.16-1.29-1.07-.89-2.35-1.57-3.55-2.29-.65-.39-1.3-.77-1.94-1.18-.23-.15-.45-.29-.67-.46-.1-.08-.48-.44-.33-.26-.69-.87-2.15.07-1.46.94h0Z"/>
          <path class="cls-1" d="m10.68,4c.41,3.02-.13,6.04-1.5,8.76-.5,1,1.05,1.77,1.55.77,1.49-2.96,2.12-6.33,1.67-9.62-.15-1.1-1.88-1.01-1.73.1h0Z"/>
          <path class="cls-1" d="m13.76,8.69c-.48,3.36-1.6,6.56-3.3,9.5-.56.97,1,1.74,1.55.77,1.77-3.06,2.95-6.43,3.45-9.93.16-1.1-1.54-1.45-1.7-.34h0Z"/>
          <path class="cls-1" d="m15.83,12.89c-.77,3.21-2.77,5.91-4.71,8.52-.66.89.63,2.05,1.29,1.16,2.12-2.86,4.27-5.8,5.12-9.33.26-1.09-1.44-1.43-1.7-.34h0Z"/>
          <path class="cls-1" d="m16.64,18.15c-1.3,2.61-3.04,4.92-5.18,6.9-.82.76.48,1.91,1.29,1.16,2.24-2.08,4.08-4.55,5.44-7.29.5-1-1.06-1.77-1.55-.77h0Z"/>
          <path class="cls-1" d="m16.83,23.08c-1.61,2.33-3.47,4.46-5.55,6.37-.82.75.48,1.91,1.29,1.16,2.09-1.91,3.94-4.04,5.55-6.37.63-.91-.66-2.07-1.29-1.16h0Z"/>
          <path class="cls-1" d="m14.41,29.78c-1.34,1.34-2.78,2.55-4.33,3.64-.91.64.03,2.1.94,1.46,1.67-1.18,3.24-2.5,4.68-3.95.79-.79-.5-1.94-1.29-1.16h0Z"/>
          <path class="cls-1" d="m.97,8.39c2.74,2.15,5.64,4.09,8.69,5.79.97.54,1.75-1.01.77-1.55-2.91-1.62-5.68-3.47-8.3-5.52-.87-.69-2.04.6-1.16,1.29h0Z"/>
          <path class="cls-1" d="m2.83,13.39c1.76,2.69,4.69,4.02,7.56,5.21,1.03.42,1.81-1.13.77-1.55-2.57-1.06-5.29-2.18-6.88-4.6-.61-.93-2.07,0-1.46.94h0Z"/>
          <path class="cls-1" d="m2.74,17.35c2.52,2.12,5.3,3.92,8.27,5.33,1.01.48,1.78-1.07.77-1.55-2.84-1.35-5.48-3.04-7.89-5.07-.85-.72-2.01.57-1.16,1.29h0Z"/>
          <path class="cls-1" d="m1.8,20.39c1.92,3.16,5.75,4.77,8.84,6.54.97.55,1.74-1,.77-1.55-1.51-.86-3.04-1.7-4.52-2.61-1.42-.87-2.76-1.87-3.63-3.32-.58-.96-2.04-.01-1.46.94h0Z"/>
          <path class="cls-1" d="m1.09,23.99c2.96,2.76,6.18,5.22,9.62,7.36.94.59,1.71-.97.77-1.55-3.3-2.06-6.39-4.45-9.23-7.1-.82-.76-1.97.53-1.16,1.29h0Z"/>
          <path class="cls-1" d="m.19,27.86c2.72,3.32,6.13,5.99,10.04,7.78,1.01.46,1.79-1.09.77-1.55-3.61-1.65-6.83-4.09-9.35-7.17-.7-.86-2.16.08-1.46.94h0Z"/>
        </g>
      </g>
      <g id="Layer_1-2-3" data-name="Layer 1-2">
        <g>
          <path class="cls-2" d="m11.64,35.18c-.31,2.66,1.03,5.19,3.04,6.36s4.56,1.07,6.84.1c.58-.25,1.22-.63,1.43-1.28.28-.86-.31-1.67-.32-2.55-1.72,1.39-3.75,2.62-5.73,2.33-1.23-.18-2.29-.94-3.13-1.91-.83-.97-1.46-2.14-2.08-3.3l-.06.27h0Z"/>
          <path class="cls-2" d="m12.22,35.02c-2.36,1.41-5.14,1.85-7,.29-.88-.74-1.49-1.86-2.32-2.67-.35.49-.7.98-1.06,1.47-.09.12-.18.25-.22.39-.05.18-.01.35.03.51.32,1.15,1.09,1.98,2.01,2.41.92.43,1.97.49,3.02.37,2.01-.22,4.11-1.11,5.82-2.8l-.28.02h0Z"/>
          <path class="cls-2" d="m23.46,32.06c.09-.54-.13-1.07-.48-1.4-.35-.33-.81-.49-1.27-.59-1.2-.25-2.49-.1-3.71.32-1.22.42-2.39,1.1-3.49,1.89-.44.32-.88.67-1.28,1.06-.57.57-1.06,1.24-1.45,1.97l-.02.15c.53.24,1.13.23,1.72.21,2.9-.1,5.92-.38,8.59-1.97.62-.37,1.27-.9,1.39-1.65h0Zm-2.93.18c-.03.07-.07.13-.11.2-.65.9-1.96,1.16-2.86,1.43-.97.29-1.95.43-2.91.7-.36.1-.72.19-1.08.28-.08.02-.55.2-.61.14-.13-.15,1.53-1.46,1.64-1.54,1.58-1.13,3.34-1.75,5.11-2.05.21-.04.42-.07.61.02.32.15.37.5.23.83h0Z"/>
          <path class="cls-2" d="m11.95,34.96c.15-1.23-.27-2.38-.59-3.44-.28-.9-.58-1.84-.96-2.68-.18-.39-.38-.76-.61-1.1-.5-.75-1.22-1.42-2.08-1.53-.71-.09-1.43.56-1.61,1.45-.11.52-.05,1.03.06,1.51.33,1.41,1.17,2.44,1.99,3.39.94,1.07,2.02,1.95,3.08,2.83.38.31.64.21.71-.42h0Zm-.78-.78s-1.37-1.97-2.12-2.76c-.43-.45-.94-.93-1.13-1.6-.04-.14-.06-.29-.02-.44.08-.31.38-.46.63-.39.17.04.3.16.43.28.29.29.53.65.75,1.02.32.54.6,1.11.88,1.69.29.6,1.13,2.72.88,2.54,0,0-.28-.33-.29-.33Z"/>
        </g>
      </g>
    </g>
  </g>
</svg>