<?xml version="1.0" encoding="UTF-8"?>
<svg id="Layer_2" data-name="Layer 2" xmlns="http://www.w3.org/2000/svg" viewBox="0 0 823.46 894.45">
  <defs>
    <style>
      .cls-1 {
        fill: #283835;
      }

      .cls-1, .cls-2, .cls-3, .cls-4, .cls-5, .cls-6 {
        stroke-width: 0px;
      }

      .cls-2 {
        fill: #c8e9e1;
      }

      .cls-3 {
        fill: #2f5641;
      }

      .cls-4 {
        fill: #fff;
      }

      .cls-5 {
        fill: #f79074;
      }

      .cls-6 {
        fill: #ff4d06;
      }
    </style>
  </defs>
  <g id="Layer_1-2" data-name="Layer 1">
    <g>
      <g>
        <path class="cls-3" d="m640.32,307.58c28.27-7.66,59.39-7.22,87.14,2.34,8.99,3.1,17.63,7.15,25.72,12.14,3.19,1.97,6.76-2.71,3.53-4.71-28.33-17.48-62.24-23.62-95.13-19.78-7.94.93-15.78,2.48-23.5,4.57-3.65.99-1.37,6.42,2.23,5.44h0Z"/>
        <path class="cls-3" d="m619.38,317.99c6.46-4.66,13.27-8.72,20.45-12.17,3.4-1.63,1.18-7.08-2.23-5.44-7.64,3.67-14.94,8-21.81,12.96-3.07,2.22.53,6.86,3.6,4.65h0Z"/>
        <path class="cls-3" d="m621.13,306.52c3.57-1.44,7.24-2.42,11.06-2.85,2.96-.34,7.98-1.18,10.37,1,2.79,2.55,6.3-2.17,3.53-4.71-3.33-3.04-8.85-2.6-13.03-2.28-4.86.37-9.65,1.58-14.16,3.4-3.51,1.42-1.27,6.86,2.23,5.44h0Z"/>
        <path class="cls-3" d="m628.72,325.39c3.77-2.01,6.65-6.06,9.42-9.19,3.17-3.6,6.2-7.58,9.9-10.66,2.9-2.41-.68-7.07-3.6-4.65-3.65,3.03-6.69,6.87-9.81,10.42-1.69,1.93-3.38,3.86-5.13,5.73-.63.67-1.26,1.33-1.93,1.95-.32.29-1.77,1.33-1.08.96-3.31,1.76-1.1,7.22,2.23,5.44h0Z"/>
        <path class="cls-3" d="m632.79,291.51c10.31.5,20.04,4.17,28.27,10.39,3.01,2.28,6.55-2.42,3.53-4.71-8.97-6.78-19.79-10.97-31.05-11.51-3.76-.18-4.53,5.65-.74,5.83h0Z"/>
        <path class="cls-3" d="m650.32,284.15c10.92,3.68,20.88,9.38,29.64,16.85,2.88,2.45,6.4-2.25,3.53-4.71-9.1-7.77-19.62-13.78-30.97-17.6-3.57-1.2-5.8,4.24-2.2,5.45h0Z"/>
        <path class="cls-3" d="m665.6,279.82c10.22,4.55,18,12.89,25.49,20.94,2.56,2.75,7.23-.82,4.65-3.6-8.22-8.84-16.72-17.8-27.94-22.8-3.46-1.54-5.66,3.91-2.2,5.45h0Z"/>
        <path class="cls-3" d="m683.63,280.37c7.9,5.94,14.54,13.18,19.82,21.53,2.02,3.2,6.66-.42,4.65-3.6-5.55-8.76-12.66-16.41-20.95-22.64-3.02-2.27-6.56,2.43-3.53,4.71h0Z"/>
        <path class="cls-3" d="m700.17,282.78c6.77,6.8,12.73,14.3,17.82,22.43,2.01,3.2,6.64-.42,4.65-3.6-5.09-8.13-11.05-15.63-17.82-22.43-2.63-2.65-7.32.92-4.65,3.6h0Z"/>
        <path class="cls-3" d="m721.03,294.97c3.63,5.3,6.79,10.85,9.48,16.69,1.58,3.43,7.03,1.2,5.44-2.23-2.91-6.3-6.35-12.33-10.27-18.05-2.14-3.12-6.78.49-4.65,3.6h0Z"/>
        <path class="cls-3" d="m641.44,326.59c8.86-7.81,17.1-16.3,24.64-25.39,2.41-2.91-2.29-6.44-4.71-3.53-7.21,8.7-15.05,16.8-23.53,24.27-2.82,2.49.75,7.16,3.6,4.65h0Z"/>
        <path class="cls-3" d="m659.24,323.46c10.06-4.23,16.3-13.16,22.02-22.01,2.04-3.16-2.64-6.71-4.71-3.53-5.11,7.9-10.53,16.3-19.55,20.09-3.49,1.47-1.26,6.91,2.23,5.44h0Z"/>
        <path class="cls-3" d="m672.37,326.22c8.63-7.09,16.32-15.24,22.87-24.29,2.21-3.06-2.48-6.6-4.71-3.53-6.25,8.64-13.52,16.4-21.76,23.17-2.92,2.4.67,7.06,3.6,4.65h0Z"/>
        <path class="cls-3" d="m681.94,331.23c11.73-4.45,19.44-16.24,27.24-25.44,2.44-2.89-2.26-6.41-4.71-3.53-3.81,4.5-7.54,9.08-11.47,13.47-3.77,4.21-7.95,8.03-13.3,10.06-3.54,1.35-1.3,6.78,2.23,5.44h0Z"/>
        <path class="cls-3" d="m693.52,335.81c11.04-8.16,21.21-17.39,30.47-27.52,2.55-2.79-2.17-6.3-4.71-3.53-8.91,9.74-18.75,18.55-29.36,26.4-3.04,2.25.56,6.9,3.6,4.65h0Z"/>
        <path class="cls-3" d="m705.85,341.2c12.76-7.03,23.75-16.73,32.14-28.67,2.17-3.09-2.52-6.63-4.71-3.53-7.74,11.03-17.84,20.24-29.66,26.75-3.28,1.81-1.08,7.26,2.23,5.44h0Z"/>
      </g>
      <path class="cls-6" d="m245.76,627.52h0c64.41-34.66,133.54-32.94,200.93-30.81,39.83,1.26,79.66,2.52,119.5,3.78,22.39.71,45.63,1.73,65.3,17.23,30.33,23.9,45.39,76.2,58.36,124.85,9.1,34.13,18.19,68.27,27.29,102.4,1.61,6.05,3.22,12.98,1.39,19.07-1.64,5.47-5.54,8.4-9.22,10.42-13.07,7.18-27,8.53-40.72,9.74-156.89,13.85-366.52,11.69-523.13,5-52-2.22-53.19-15.86-21.62-109.15,24.75-73.14,72.42-125.91,121.91-152.54Z"/>
      <path class="cls-2" d="m121.63,676.18c118.58,107.79,338.13,134.49,479.23,69.61,150.34-69.13,235.57-237.08,220.99-412.98C793.94-3.82,281.7-110.77,79.35,131.7c-16.27,19.5-30.15,40.94-41.35,63.72C14.79,242.67,3.26,294.93.63,347.33c-5.62,111.75,26.3,228.59,101.78,309.84,6.17,6.64,12.58,12.98,19.23,19.01Z"/>
      <path class="cls-4" d="m400.59,743.38c115.04,4.29,230.86-45.48,309.04-132.81,9.97-11.14,19.92-24.51,19-39.68-1.22-20.23-20.62-33.43-38.27-42.23-123.71-61.64-265.41-70.86-402.53-66.79-43.64,1.3-88.56,4.16-127.94,23.6h0c-27.89,13.77-74.72,52.4-68.14,89.83,5.23,29.77,57.31,65.44,79.4,82.7,65.84,51.47,146.96,82.3,229.44,85.37Z"/>
      <g>
        <path class="cls-6" d="m378.69,431.12c-.79-2.93-1.57-5.87-2.33-8.81-12.98-.27-25.96-.68-38.94-1.22-1.9,3.35-3.8,6.71-5.7,10.05,13.61-.02,27.21-.02,40.82-.02,2.05,0,4.1,0,6.16,0Z"/>
        <path class="cls-6" d="m374.95,416.84c-1.21-4.7-2.39-9.42-3.55-14.14-7.89.11-15.78.17-23.67.2-2.48,4.37-4.95,8.73-7.41,13.08,7.39.22,14.78.43,22.18.6,4.15.1,8.3.18,12.46.26Z"/>
        <path class="cls-6" d="m333.44,484.14c-.38,1.2-.71,2.48-1,3.86l14.05.38.05-4.37c-4.37.04-8.73.09-13.1.13Z"/>
        <path class="cls-6" d="m367.24,385.33c-3.27.14-6.53.27-9.8.4-2.26,3.99-4.51,7.98-6.76,11.95,6.47-.12,12.93-.25,19.4-.4-.96-3.98-1.91-7.96-2.84-11.95Z"/>
        <path class="cls-6" d="m358.87,656.76c15.16.07,30.31.18,45.47.31l.2-13.35c-32.38.51-64.77.75-97.16.66-8.59-.02-17.17-.04-25.76-.09-.04,4.09-.07,8.27-.11,12.37,25.79-.06,51.57-.03,77.36.1Z"/>
        <path class="cls-6" d="m373.61,609.49c10.48-.08,20.96-.2,31.44-.33l.2-13.12c-40.84.72-81.67,1.2-122.51,1.15-.12,4.13-.24,8.26-.36,12.39,30.41.11,60.82.15,91.23-.09Z"/>
        <path class="cls-6" d="m360.48,478.41c-1.66-3.27-4.15-5.77-6.95-6.95-.78-.33-1.61-.56-2.46-.69l-.08,7.31c3.15.14,6.31.25,9.49.33Z"/>
        <path class="cls-6" d="m366.05,380.2c-.53-2.3-1.06-4.59-1.58-6.89-1.35,2.39-2.7,4.78-4.05,7.16,1.87-.09,3.75-.18,5.62-.27Z"/>
        <path class="cls-6" d="m382.64,445.4c-.82-2.91-1.64-5.82-2.44-8.74-17.13-.09-34.26-.21-51.4-.38-1.96,3.45-3.92,6.9-5.87,10.35,15.66-.31,31.33-.63,46.99-.96,4.24-.09,8.48-.18,12.72-.28Z"/>
        <path class="cls-6" d="m404.09,673.39l.18-11.84c-40.93-.55-81.87-.72-122.8-.93-.04,3.96-.1,7.76-.16,11.25,32.23.98,87.19,8.23,122.79,1.52Z"/>
        <path class="cls-6" d="m346.68,470.84c-2.72.5-5.42,1.81-7.65,3.85-.82.75-1.56,1.59-2.25,2.53,3.29.25,6.56.47,9.83.64l.07-7.03Z"/>
        <path class="cls-6" d="m405.34,590.54l.13-8.44c-26.02-.09-52.05-.26-78.07-.52-14.73-.15-29.45-.41-44.18-.68-.12,4-.24,8-.35,12.01,32.44-.61,64.87-1.21,97.31-1.85,8.39-.17,16.77-.34,25.16-.51Z"/>
        <path class="cls-6" d="m380.34,525.39c8.65-.41,17.32-.99,25.99-1.1l.07-4.4c.07-.1.31-.22.7-.36-.4-1.05-.8-2.1-1.2-3.15-4.1-.06-8.2-.13-12.3-.19-36.2-.52-72.4-.7-108.6-.9-.56,3.94-.34,9.86-.2,14.43,18.77-.86,37.55-1.69,56.33-2.56,13.07-.61,26.15-1.14,39.22-1.76Z"/>
        <path class="cls-6" d="m364.99,477.69c.16.37.29.74.44,1.11,9.07-.11,18.13-.22,27.2-.33-1.03-3.2-2.05-6.41-3.05-9.63-10.5.09-20.99.15-31.49.16,2.9,2,5.29,4.99,6.9,8.69Z"/>
        <path class="cls-6" d="m404.6,639.43l.16-10.54c-32.23.33-64.46.71-96.69.87-8.76.04-17.51.06-26.27.05-.06,3.28-.11,6.85-.15,10.57,29.22-.02,58.44-.13,87.65-.45,11.76-.13,23.53-.3,35.29-.5Z"/>
        <path class="cls-6" d="m372.31,561.97c11.15.25,22.29.42,33.44.52l.22-14.81c-21.1.45-42.21.67-63.32.63-19.47-.04-38.88-.53-58.3-1.27-.16,3.98-.3,7.96-.44,11.94,1.2.05,2.4.1,3.6.16,28.25,1.27,56.52,2.2,84.8,2.83Z"/>
        <path class="cls-6" d="m397.78,493.96c-1.2-3.47-2.36-6.96-3.51-10.46-9.14.1-18.28.2-27.42.3.52,2.56.76,5.03.9,7.15.04.62-.18,1.22-.61,1.67-.41.43-.99.67-1.58.67-.02,0-.04,0-.06,0l-35.85-.97c-.68-.02-1.31-.35-1.71-.9-.4-.55-.52-1.25-.33-1.91l.25-.87c.28-1.57.61-3.05,1-4.45-9.02.08-18.05.15-27.07.2-.08,0-.17,0-.25,0-1.99,3.52-3.99,7.05-5.99,10.58,21.37-.05,42.75-.17,64.12-.42,12.71-.15,25.41-.35,38.12-.58Z"/>
        <path class="cls-6" d="m388.06,542.51c6-.13,12-.28,18-.44l.19-12.79c-8.18.69-16.41.94-24.61,1.27-13.29.54-26.57,1.05-39.87,1.37-18.97.46-37.93.73-56.9.74.02.91.02,1.7-.01,2.31-.14,3.11-.27,6.22-.39,9.33,7.54-.16,15.08-.32,22.62-.42,27-.36,53.99-.77,80.98-1.36Z"/>
        <path class="cls-6" d="m349.78,511.38c16.69.09,33.38.21,50.07.38,1.44.01,2.87.03,4.31.05-1.67-4.5-3.3-9.02-4.89-13.57-32.71.58-65.43.87-98.15.77-2.62,0-5.24-.02-7.86-.02-2.31,4.08-4.62,8.17-6.94,12.28,21.16-.03,42.31,0,63.47.11Z"/>
        <path class="cls-6" d="m404.84,623.84l.14-9.66c-31.36.28-62.72.25-94.08-.01-9.55-.08-19.1-.23-28.65-.43-.09,2.95-.18,5.91-.27,8.86-.03.87-.05,1.78-.08,2.73,29.49-.6,59-.75,88.49-1.09,11.48-.13,22.96-.27,34.44-.4Z"/>
        <path class="cls-6" d="m350.88,488.49l12.29.33c-.16-1.58-.4-3.28-.79-4.98-3.82.04-7.63.08-11.45.12l-.05,4.53Z"/>
        <path class="cls-6" d="m330.71,479s0-.03,0-.05c.05-.59.33-1.11.75-1.47,1.27-2.37,2.8-4.38,4.61-6.03,1.04-.95,2.16-1.77,3.33-2.47-9.69-.02-19.37-.07-29.06-.15-2.01,3.54-4.02,7.09-6.03,10.65,8.78-.12,17.55-.21,26.33-.3.03-.06.05-.12.08-.18Z"/>
        <path class="cls-6" d="m388.05,463.85c-1.31-4.32-2.6-8.66-3.86-13.02-21.37.38-42.75.67-64.12.84-2.38,4.2-4.77,8.41-7.16,12.62,16.93,0,33.87-.03,50.8-.18,8.11-.07,16.22-.16,24.33-.26Z"/>
        <path class="cls-6" d="m382.94,576.5c7.53,0,15.07,0,22.6,0l.13-8.52c-27.38-.31-54.74-1.13-82.08-2.5-13.28-.66-26.55-1.57-39.81-2.57-.15,4.59-.3,9.18-.44,13.76.14,0,.27,0,.41,0,33.06-.15,66.12-.17,99.19-.17Z"/>
        <path class="cls-6" d="m368.13,385.3c1.17,3.75,2.42,7.76,3.74,11.95.56,1.78,1.13,3.58,1.71,5.42,1.45,4.57,2.96,9.34,4.51,14.22.58,1.81,1.16,3.64,1.74,5.48.92,2.88,1.84,5.8,2.77,8.74.58,1.84,1.17,3.7,1.75,5.55.9,2.87,1.81,5.75,2.71,8.63.57,1.82,1.14,3.63,1.7,5.45,1.36,4.37,2.71,8.73,4.02,13.03.51,1.68,1.02,3.35,1.53,5.01.99,3.25,1.95,6.47,2.89,9.62.5,1.7,1,3.38,1.49,5.04,1.05,3.58,2.05,7.07,3,10.44.41,1.45.81,2.88,1.19,4.28,1.35,4.88,2.55,9.46,3.59,13.65.39,1.58.76,3.11,1.1,4.57.11.49.22.97.33,1.44.1.43.19.89.28,1.35,15.06-4.15,119.04-19.67,124.5-18.03-13.98-37.76-49.64-131.04-55.15-134.71-1.77-1.18-19.29-.4-40.04.99.04,14.49.22,28.97.54,43.44l-21.15-1.59.23-40.38c-26.93,2.06-52.65,4.4-52.65,4.4.64,2.15,1.34,4.44,2.08,6.86.51,1.65,1.03,3.36,1.58,5.13Z"/>
        <path class="cls-6" d="m366.55,380.17c-.74-2.42-1.44-4.72-2.08-6.86.52,2.3,1.05,4.59,1.58,6.89.17,0,.33-.02.5-.02Z"/>
        <path class="cls-6" d="m397.78,493.96c1.31-.02,2.61-.05,3.92-.07-.95-3.37-1.95-6.86-3-10.44-1.48.02-2.95.03-4.43.05,1.15,3.5,2.32,6.99,3.51,10.46Z"/>
        <path class="cls-6" d="m404.16,511.8c.77,0,1.55.02,2.32.03-1.04-4.19-2.25-8.77-3.59-13.65-1.21.02-2.41.04-3.62.06,1.59,4.54,3.22,9.07,4.89,13.57Z"/>
        <path class="cls-6" d="m407.1,519.52c.28-.1.65-.21,1.09-.34-.09-.47-.18-.92-.28-1.35-.11-.47-.22-.95-.33-1.44-.56,0-1.12-.02-1.68-.03.4,1.05.8,2.1,1.2,3.15Z"/>
        <path class="cls-6" d="m374.95,416.84c1.05.02,2.1.04,3.15.05-1.55-4.89-3.06-9.65-4.51-14.22-.73.01-1.46.02-2.19.03,1.16,4.72,2.35,9.44,3.55,14.14Z"/>
        <path class="cls-6" d="m382.64,445.4c1.48-.03,2.95-.06,4.43-.1-.9-2.88-1.81-5.76-2.71-8.63-1.39,0-2.77-.01-4.16-.02.8,2.92,1.61,5.83,2.44,8.74Z"/>
        <path class="cls-6" d="m388.05,463.85c1.58-.02,3.16-.04,4.75-.06-1.32-4.3-2.66-8.66-4.02-13.03-1.53.03-3.05.05-4.58.08,1.26,4.35,2.55,8.69,3.86,13.02Z"/>
        <path class="cls-6" d="m370.08,397.29c.6-.01,1.19-.03,1.79-.04-1.32-4.19-2.58-8.2-3.74-11.95-.3.01-.59.02-.89.04.93,3.99,1.88,7.97,2.84,11.95Z"/>
        <path class="cls-6" d="m378.69,431.12c1.31,0,2.61,0,3.92,0-.93-2.94-1.85-5.86-2.77-8.74-1.16-.02-2.32-.04-3.48-.07.77,2.94,1.55,5.88,2.33,8.81Z"/>
        <path class="cls-6" d="m392.62,478.47c1.53-.02,3.06-.04,4.58-.06-.94-3.15-1.9-6.37-2.89-9.62-1.58.02-3.16.03-4.74.04,1,3.22,2.01,6.43,3.05,9.63Z"/>
        <path class="cls-1" d="m437.83,323.48l-20.45-.11-.25,45.54c6.85-.52,13.78-1.03,20.38-1.47-.04-14.65.07-29.3.32-43.95Z"/>
        <path class="cls-1" d="m416.9,409.28l21.15,1.59c-.32-14.47-.5-28.95-.54-43.44-6.6.44-13.53.95-20.38,1.47l-.23,40.38Z"/>
        <path class="cls-4" d="m424.9,307.14c.22,0,.43-.03.65-.1.85-.26,1.45-1.01,1.54-1.89.01-.12,1.32-11.82,16.12-26.07,13.79-13.28,42.38-31.51,100.23-42.93,58.28-11.5,96.33-31.5,113.08-59.44,12.44-20.75,10.22-40.99,6.17-54.3-.07-.23-.15-.45-.22-.68,2,8.96,1.48,18.57-1.31,27.9-.82,7.85-3.28,16.29-8.4,24.82-16.09,26.83-53.16,46.14-110.17,57.39-47.62,9.4-82.22,24.36-102.84,44.48-5.35,5.22-9.02,10.12-11.54,14.33-.82,2.86-1.3,5.52-1.45,7.9.07.68.14,1.37.23,2.05l-.26.03c.02.76.08,1.48.18,2.16l-4.34.67s0-.01,0-.02l-.24.09c-1.23-3.46-2.23-6.95-3.02-10.44-17.05-29.64-8.95-65.65,22.15-92.93,22.76-19.97,55.94-27.6,88.41-32.87,8.24-1.34,18.02-1.91,28.38-2.51,28.49-1.66,60.77-3.54,75.89-22.44,5.59-7,6.5-19.13,2.01-27.04-3.38-5.97-9.25-9.13-16.75-9.13-1.28,0-2.61.09-3.98.28-2.11.29-3.81.96-5.19,1.84-3.28,2.32-5.26,5.45-5.87,9.33l-4.33-.68c.19-1.24.5-2.42.92-3.56l-1.54-.28c2.13-11.73,16.6-17.02,29.13-16.03,14.46,1.14,23.98,8.28,29.12,21.83.41,1.08.74,2.23,1.01,3.43l3.71-.85c-4.03-12.47-11.63-21.62-21.52-25.81-9.3-3.94-19.73-3.2-30.15,2.13-10.86,5.57-12.92,15.02-10.92,19.96,1.09,2.69,3.43,4,5.81,3.27,1.52-.47,2.16-1.89,2.91-3.55,1.22-2.69,2.74-6.05,7.49-6.69,7.62-1.03,13.27,1.27,16.33,6.67,3.62,6.38,2.87,16.52-1.62,22.14-13.9,17.38-45.15,19.2-72.72,20.8-10.47.61-20.37,1.19-28.83,2.56-33.12,5.38-67.01,13.2-90.6,33.9-17.37,15.24-28.55,34.32-31.48,53.72-3.04,20.11,2.54,39.39,16.13,55.75.42.51,1.04.79,1.68.79Z"/>
        <path class="cls-4" d="m422.22,284.59c-2.22-16.56.72-32.56,8.62-44.91,29.98-46.86,84.52-51.65,110.73-53.96,3.09-.27,5.76-.51,8.04-.77,3.47-.41,7.01-.78,10.44-1.15,11.76-1.26,23.91-2.55,35.69-5.24,17.64-4.02,31.92-10.8,42.42-20.13,9.81-8.72,15.1-22.63,13.49-35.44-1.2-9.5-7.99-17.14-18.12-20.75-1.68-.37-3.45-.64-5.33-.79-10.76-.84-22.86,3.58-24.47,12.44l-.21-.04c0,.08,0,.16,0,.23.02,1.29.34,2.11.6,2.5.14-.29.3-.63.42-.91.92-2.03,2.41-5.29,5.7-7.38.05-.04.1-.08.15-.11,4.58-3.16,11.26-4.31,17.42-3.01,11.05,2.34,18.34,9.2,19.5,18.37,1.44,11.42-3.29,23.83-12.05,31.61-9.95,8.84-23.57,15.28-40.48,19.13-11.52,2.63-23.55,3.91-35.18,5.16-3.44.37-6.99.75-10.48,1.16-2.21.26-4.85.49-7.91.76-26.91,2.36-82.9,7.28-114.04,55.96-9.73,15.2-12.45,35.47-7.83,55.79.92,1.6,1.91,3.18,2.98,4.74-.39-4.53-.42-8.95-.07-13.26Z"/>
        <path class="cls-4" d="m422.37,298.69c-.03-.28-.05-.56-.07-.84-1.07-1.56-2.06-3.14-2.98-4.74.79,3.49,1.79,6.97,3.02,10.44l.24-.09c-.23-1.47-.29-3.07-.21-4.77Z"/>
        <path class="cls-4" d="m604.53,115.68c-.13.28-.28.62-.42.91-.26-.39-.58-1.21-.6-2.5,0-.08,0-.15,0-.23l-2.56-.47c-.41,1.13-.72,2.32-.92,3.56l4.33.68c.61-3.88,2.58-7.02,5.87-9.33-3.29,2.09-4.78,5.35-5.7,7.38Z"/>
        <path class="cls-4" d="m658.22,122.87c-3.63-11.25-10.37-19.46-19.07-23.15-8.07-3.42-17.21-2.73-26.43,2-.89.45-1.7.94-2.44,1.44,5.31-2.73,12.12-3.61,18.42-2.27,1.68.35,3.29.81,4.82,1.36,9.72,2.14,16.16,8.02,20.03,18.22,2.94,7.77,1.54,20.57-1.61,27.66-7.05,15.85-20.32,26.94-41.77,34.9-17.74,6.58-37.1,8.73-55.84,10.81l-3.27.36c-20.98,2.34-41.34,5.13-59.79,13.36-22.36,9.97-38.82,21.15-50.32,34.15-11.2,12.66-17.47,27.03-18.75,42.9.31,2.32.72,4.65,1.23,6.98.78-3.22,1.95-6.64,3.49-10.15,3.75-28.79,25.57-51.77,66.14-69.87,17.87-7.97,37.87-10.7,58.49-13l3.26-.36c19-2.11,38.64-4.28,56.88-11.05,22.62-8.4,36.68-20.23,44.25-37.23,1.25-2.8,2.26-6.4,2.89-10.28.75-5.69.56-11.35-.62-16.75Z"/>
        <path class="cls-4" d="m426.73,300.65l.26-.03c-.09-.69-.16-1.37-.23-2.05-.04.72-.05,1.42-.03,2.09Z"/>
        <path class="cls-4" d="m607.89,104.57c.75-.52,1.55-.99,2.39-1.42.74-.5,1.55-.99,2.44-1.44,9.22-4.73,18.37-5.42,26.43-2,8.7,3.69,15.44,11.89,19.07,23.15-.03-.13-.05-.27-.09-.4l.54-.12c-.27-1.2-.6-2.35-1.01-3.43-5.14-13.56-14.66-20.7-29.12-21.83-12.53-.99-27,4.3-29.13,16.03l1.54.28c1.3-3.54,3.65-6.55,6.94-8.82Z"/>
        <path class="cls-4" d="m610.28,103.16c-4.89,3.32-6.73,7.53-6.77,10.7l.21.04c1.61-8.87,13.71-13.29,24.47-12.44,1.88.15,3.65.42,5.33.79-1.53-.55-3.14-1-4.82-1.36-6.31-1.33-13.11-.45-18.42,2.27Z"/>
        <path class="cls-4" d="m423.45,291.57c-.51-2.33-.92-4.66-1.23-6.98-.35,4.31-.32,8.73.07,13.26.04.06.08.12.12.18.14-2.03.49-4.19,1.04-6.46Z"/>
        <path class="cls-4" d="m610.28,103.16c-.83.43-1.64.9-2.39,1.42-3.29,2.27-5.64,5.28-6.94,8.82l2.56.47c.04-3.17,1.88-7.39,6.77-10.7Z"/>
        <path class="cls-4" d="m422.29,297.85c.02.28.05.56.07.84.01-.21.04-.44.05-.65-.04-.06-.08-.12-.12-.18Z"/>
        <path class="cls-4" d="m662.41,121.48h-.03c.03.09.05.17.08.25-.02-.08-.03-.17-.05-.25Z"/>
        <path class="cls-4" d="m659.36,126.83c.38,4.17.15,8.64-.52,12.79-1.37,10.45-5.89,20.97-13.17,30.04-9.59,11.97-23.68,21.61-41.87,28.66-14.54,5.63-30.13,9.08-45.21,12.42-1.7.38-3.41.75-5.11,1.13-6.74,1.51-13.45,2.54-19.93,3.55-20.48,3.17-41.66,6.45-70.43,24.56-12.7,8-23.92,19.54-31.6,32.5-1.77,2.99-3.3,5.99-4.59,8.93-.53,4.04-.7,8.19-.52,12.46.52-1.02,1.11-2.09,1.78-3.22,4.16-14.55,16.93-34.16,37.25-46.96,28-17.63,48.73-20.84,68.77-23.94,6.55-1.01,13.33-2.06,20.21-3.6,1.7-.38,3.4-.76,5.1-1.13,15.24-3.37,31-6.86,45.84-12.61,18.92-7.33,33.63-17.43,43.71-30.01,5.59-6.98,9.66-14.77,12.06-22.77.9-8.53-.14-16.35-1.79-22.8Z"/>
        <path class="cls-4" d="m426.47,302.08l-3.89,1.38s0,.01,0,.02l4.34-.67c-.1-.68-.16-1.41-.18-2.16l-.72.09c.15.45.3.9.46,1.34Z"/>
        <path class="cls-4" d="m659.36,126.83c1.65,6.45,2.68,14.27,1.79,22.8,2.79-9.33,3.31-18.94,1.31-27.9-.03-.08-.05-.16-.08-.25l-3.71.85c.32,1.43.55,2.94.69,4.49Z"/>
        <path class="cls-4" d="m426.76,298.56c.14-2.38.63-5.04,1.45-7.9-.67,1.12-1.27,2.2-1.78,3.22.07,1.55.18,3.11.34,4.68Z"/>
        <path class="cls-4" d="m426.01,300.74l-3.37.42c-.1-.83-.19-1.65-.27-2.47-.09,1.7-.02,3.3.21,4.77l3.89-1.38c-.16-.45-.31-.9-.46-1.34Z"/>
        <path class="cls-4" d="m424.89,297.18c.42-1.02.93-2.12,1.53-3.31-.18-4.27,0-8.42.52-12.46-1.54,3.51-2.71,6.93-3.49,10.15.41,1.87.9,3.74,1.44,5.61Z"/>
        <path class="cls-4" d="m658.22,122.87c1.19,5.4,1.37,11.07.62,16.75.67-4.15.91-8.62.52-12.79-.28-1.09-.57-2.14-.88-3.14-.08-.28-.18-.55-.27-.82Z"/>
        <path class="cls-4" d="m658.22,122.87c.09.28.18.54.27.82.31,1,.6,2.06.88,3.14-.14-1.55-.37-3.06-.69-4.49l-.54.12c.03.13.06.27.09.4Z"/>
        <path class="cls-4" d="m424.89,297.18c.35,1.19.72,2.37,1.12,3.55l.72-.09c-.02-.67-.02-1.36.03-2.09-.16-1.58-.27-3.14-.34-4.68-.6,1.18-1.11,2.28-1.53,3.31Z"/>
        <path class="cls-4" d="m422.42,298.03c.46.67.93,1.33,1.41,1.99.28-.85.63-1.81,1.06-2.84-.54-1.87-1.03-3.74-1.44-5.61-.55,2.27-.89,4.43-1.04,6.46Z"/>
        <path class="cls-4" d="m422.42,298.03c-.02.22-.04.44-.05.65.08.82.17,1.64.27,2.47l3.37-.42c-.4-1.18-.77-2.37-1.12-3.55-.43,1.04-.78,2-1.06,2.84-.49-.66-.95-1.33-1.41-1.99Z"/>
        <path class="cls-5" d="m404.34,657.08c-15.16-.13-30.31-.24-45.47-.31-25.79-.12-51.57-.15-77.36-.1-.01,1.33-.03,2.65-.04,3.95,40.93.21,81.87.38,122.8.93l.07-4.47Z"/>
        <path class="cls-5" d="m404.54,643.73l.06-4.3c-11.76.19-23.52.37-35.29.5-29.22.32-58.44.43-87.65.45-.01,1.29-.03,2.6-.04,3.92,8.59.05,17.17.07,25.76.09,32.39.09,64.77-.16,97.16-.66Z"/>
        <path class="cls-5" d="m404.76,628.89l.08-5.05c-11.48.13-22.96.26-34.44.4-29.49.34-59,.49-88.49,1.09-.04,1.42-.07,2.92-.1,4.48,8.75,0,17.51,0,26.27-.05,32.23-.16,64.46-.54,96.69-.87Z"/>
        <path class="cls-5" d="m404.98,614.18l.08-5.03c-10.48.13-20.96.25-31.44.33-30.41.24-60.82.2-91.23.09-.04,1.38-.08,2.77-.13,4.15,9.54.21,19.09.35,28.65.43,31.36.26,62.72.3,94.08.01Z"/>
        <path class="cls-5" d="m405.25,596.04l.08-5.5c-8.39.17-16.77.35-25.16.51-32.44.65-64.87,1.24-97.31,1.85-.04,1.43-.08,2.86-.12,4.29,40.84.05,81.67-.43,122.51-1.15Z"/>
        <path class="cls-5" d="m405.46,582.1l.08-5.59c-7.53,0-15.07,0-22.6,0-33.06,0-66.13.02-99.19.17-.14,0-.27,0-.41,0-.04,1.41-.09,2.82-.13,4.22,14.72.27,29.45.53,44.18.68,26.02.26,52.04.43,78.07.52Z"/>
        <path class="cls-5" d="m405.67,567.98l.08-5.5c-11.15-.1-22.3-.27-33.44-.52-28.28-.64-56.55-1.56-84.8-2.83-1.2-.05-2.4-.1-3.6-.16-.05,1.31-.09,2.62-.13,3.94,13.26,1,26.52,1.91,39.81,2.57,27.34,1.37,54.7,2.19,82.08,2.5Z"/>
        <path class="cls-5" d="m405.98,547.67l.08-5.6c-6,.16-12,.31-18,.44-26.99.59-53.98,1-80.98,1.36-7.54.1-15.08.26-22.62.42-.04.91-.07,1.82-.11,2.74,19.42.73,38.83,1.23,58.3,1.27,21.11.04,42.22-.18,63.32-.63Z"/>
        <path class="cls-5" d="m381.64,530.55c8.2-.33,16.43-.58,24.61-1.27l.07-5c-8.67.11-17.34.69-25.99,1.1-13.07.62-26.14,1.16-39.22,1.76-18.78.87-37.55,1.7-56.33,2.56.03,1.07.06,2.07.08,2.95,18.97,0,37.93-.28,56.9-.74,13.29-.32,26.58-.84,39.87-1.37Z"/>
        <path class="cls-5" d="m405.89,516.37c-.58-1.52-1.16-3.04-1.73-4.57-1.44-.01-2.87-.03-4.31-.05-16.69-.16-33.38-.29-50.07-.38-21.16-.11-42.31-.14-63.47-.11-.14.25-.28.49-.42.74-.42.75-.71,1.89-.91,3.27,36.2.19,72.4.37,108.6.9,4.1.06,8.2.13,12.3.19Z"/>
        <path class="cls-5" d="m405.89,516.37c.56,0,1.12.02,1.68.03-.34-1.46-.71-2.99-1.1-4.57-.77,0-1.55-.02-2.32-.03.57,1.53,1.15,3.05,1.73,4.57Z"/>
        <path class="cls-5" d="m399.27,498.23c-.5-1.42-1-2.85-1.5-4.28-12.71.23-25.41.44-38.12.58-21.37.25-42.75.36-64.12.42-.76,1.34-1.52,2.68-2.28,4.03,2.62,0,5.24.02,7.86.02,32.72.09,65.44-.2,98.15-.77Z"/>
        <path class="cls-5" d="m399.27,498.23c1.21-.02,2.41-.04,3.62-.06-.39-1.4-.79-2.83-1.19-4.28-1.31.02-2.61.05-3.92.07.49,1.43,1,2.85,1.5,4.28Z"/>
        <path class="cls-5" d="m365.43,478.8c.11.29.22.58.32.87.13.23.21.49.24.76.35,1.12.63,2.25.86,3.37,9.14-.1,18.28-.2,27.42-.3-.55-1.67-1.1-3.35-1.64-5.03-9.07.11-18.13.22-27.2.33Z"/>
        <path class="cls-5" d="m328.85,484.18c.5-1.81,1.1-3.47,1.78-5-8.78.09-17.55.18-26.33.3-.92,1.63-1.85,3.27-2.78,4.9.08,0,.17,0,.25,0,9.02-.05,18.05-.12,27.07-.2Z"/>
        <path class="cls-5" d="m350.93,483.96c3.82-.04,7.63-.08,11.45-.12-.08-.33-.16-.67-.24-1-3.76-.08-7.48-.21-11.19-.37l-.02,1.49Z"/>
        <path class="cls-5" d="m346.56,482.26c-4.03-.22-8.06-.49-12.13-.81-.36.85-.69,1.74-.99,2.69,4.37-.04,8.73-.08,13.1-.13l.02-1.75Z"/>
        <path class="cls-5" d="m394.26,483.5c1.48-.02,2.95-.03,4.43-.05-.49-1.66-.98-3.34-1.49-5.04-1.53.02-3.06.04-4.58.06.54,1.68,1.09,3.36,1.64,5.03Z"/>
        <path class="cls-5" d="m355.22,467.42c1,.42,1.96.95,2.87,1.58,10.5-.02,20.99-.07,31.49-.16-.51-1.66-1.02-3.32-1.53-4.99-8.11.1-16.22.19-24.33.26-16.93.14-33.87.19-50.8.18-.86,1.52-1.72,3.03-2.58,4.55,9.69.08,19.37.13,29.06.15,4.97-2.95,10.94-3.62,15.82-1.56Z"/>
        <path class="cls-5" d="m389.58,468.83c1.58-.01,3.16-.03,4.74-.04-.5-1.66-1.01-3.33-1.53-5.01-1.58.02-3.16.04-4.75.06.51,1.66,1.01,3.33,1.53,4.99Z"/>
        <path class="cls-5" d="m382.64,445.4c-4.24.09-8.48.19-12.72.28-15.66.33-31.33.64-46.99.96-.95,1.68-1.91,3.36-2.86,5.04,21.37-.17,42.75-.46,64.12-.84-.52-1.81-1.04-3.62-1.55-5.43Z"/>
        <path class="cls-5" d="m384.19,450.83c1.53-.03,3.05-.05,4.58-.08-.57-1.81-1.13-3.63-1.7-5.45-1.48.03-2.95.06-4.43.1.51,1.81,1.03,3.62,1.55,5.43Z"/>
        <path class="cls-5" d="m378.69,431.12c-2.05,0-4.1,0-6.16,0-13.61,0-27.21,0-40.82.02-.97,1.71-1.94,3.42-2.91,5.13,17.13.17,34.26.29,51.4.38-.51-1.84-1.01-3.69-1.51-5.53Z"/>
        <path class="cls-5" d="m380.2,436.65c1.39,0,2.77.01,4.16.02-.59-1.86-1.17-3.71-1.75-5.55-1.31,0-2.61,0-3.92,0,.5,1.85,1,3.69,1.51,5.53Z"/>
        <path class="cls-5" d="m374.95,416.84c-4.15-.08-8.3-.16-12.46-.26-7.39-.18-14.79-.38-22.18-.6-.97,1.7-1.93,3.4-2.89,5.11,12.98.54,25.96.95,38.94,1.22-.48-1.82-.94-3.65-1.41-5.47Z"/>
        <path class="cls-5" d="m376.36,422.31c1.16.02,2.32.05,3.48.07-.58-1.84-1.17-3.67-1.74-5.48-1.05-.02-2.1-.03-3.15-.05.47,1.82.94,3.65,1.41,5.47Z"/>
        <path class="cls-5" d="m370.08,397.29c-6.47.14-12.93.27-19.4.4-.99,1.74-1.97,3.48-2.96,5.22,7.89-.03,15.78-.09,23.67-.2-.44-1.8-.88-3.61-1.31-5.41Z"/>
        <path class="cls-5" d="m371.39,402.7c.73,0,1.46-.02,2.19-.03-.58-1.84-1.15-3.65-1.71-5.42-.6.01-1.2.03-1.79.04.44,1.81.87,3.61,1.31,5.41Z"/>
        <path class="cls-5" d="m366.05,380.2c-1.87.09-3.75.18-5.62.27-.99,1.76-1.99,3.52-2.98,5.27,3.27-.13,6.53-.26,9.8-.4-.4-1.71-.8-3.43-1.19-5.14Z"/>
        <path class="cls-5" d="m368.13,385.3c-.55-1.76-1.08-3.48-1.58-5.13-.17,0-.33.02-.5.02.4,1.71.79,3.43,1.19,5.14.3-.01.59-.02.89-.04Z"/>
        <path class="cls-4" d="m333.08,476.94c1.24.1,2.46.18,3.69.28.68-.94,1.43-1.79,2.25-2.53,2.23-2.04,4.93-3.35,7.65-3.85l.02-1.84c-2.43,0-4.86,0-7.3-.01-1.18.7-2.3,1.52-3.33,2.47-1.81,1.65-3.34,3.65-4.61,6.03.43-.38,1.01-.59,1.62-.53Z"/>
        <path class="cls-4" d="m351.06,470.77c.85.14,1.68.37,2.46.69,2.8,1.18,5.29,3.68,6.95,6.95,1.13.03,2.25.07,3.38.09.39,0,.74.12,1.05.3.17,0,.34,0,.51,0-.14-.37-.28-.74-.44-1.11-1.61-3.7-4-6.7-6.9-8.69-2.34,0-4.67,0-7.01,0l-.02,1.77Z"/>
        <path class="cls-4" d="m330.71,479c-.03.06-.06.12-.08.18.03,0,.06,0,.09,0,0-.06,0-.12,0-.18Z"/>
        <path class="cls-4" d="m363.17,488.83l-12.29-.33-.02,1.7c-.01,1.2-.99,2.17-2.19,2.17h-.02c-1.21-.01-2.18-1.01-2.17-2.22l.02-1.77-14.05-.38c.29-1.37.62-2.66,1-3.86-1.53.01-3.06.03-4.59.05-.39,1.4-.72,2.88-1,4.45l-.25.87c-.19.65-.07,1.36.33,1.91.4.55,1.03.88,1.71.9l35.85.97s.04,0,.06,0c.6,0,1.17-.24,1.58-.67.43-.44.65-1.05.61-1.67-.14-2.12-.38-4.59-.9-7.15-1.49.02-2.98.03-4.47.05.39,1.7.63,3.4.79,4.98Z"/>
        <path class="cls-4" d="m365.75,479.66c-.1-.29-.21-.58-.32-.87-.17,0-.34,0-.51,0,.35.2.64.5.83.86Z"/>
        <path class="cls-4" d="m334.43,481.44c-.57-.05-1.14-.08-1.71-.13-1.13-.09-1.98-1.03-2-2.14-.03,0-.06,0-.09,0-.69,1.53-1.28,3.19-1.78,5,1.53-.01,3.06-.03,4.59-.05.3-.95.63-1.85.99-2.69Z"/>
        <path class="cls-4" d="m366.01,480.73c-.02,1.2-1,2.15-2.19,2.15-.01,0-.03,0-.04,0-.55-.01-1.1-.03-1.65-.04.09.33.17.66.24,1,1.49-.02,2.98-.03,4.47-.05-.23-1.12-.51-2.24-.86-3.37.01.1.03.2.03.31Z"/>
        <path class="cls-4" d="m346.7,469v-.06c.01-1.21,1.03-2.19,2.22-2.17,1.21.01,2.18,1.01,2.17,2.22h0c2.34.01,4.67.01,7.01,0-.91-.63-1.87-1.16-2.87-1.58-4.89-2.05-10.85-1.38-15.82,1.56,2.43,0,4.86.01,7.3.01Z"/>
        <path class="cls-4" d="m346.54,484.01l-.05,4.37,4.39.12.05-4.53c-1.46.02-2.93.03-4.39.04Z"/>
        <path class="cls-4" d="m350.99,478.08l.08-7.31c-1.42-.23-2.91-.2-4.39.07l-.07,7.03c1.46.08,2.92.15,4.38.22Z"/>
        <path class="cls-4" d="m346.54,484.01c1.46-.02,2.93-.03,4.39-.04l.02-1.49c-1.46-.07-2.93-.13-4.39-.21l-.02,1.75Z"/>
        <path class="cls-4" d="m351.06,470.77l.02-1.77c-1.46,0-2.92,0-4.39,0l-.02,1.84c1.48-.27,2.97-.3,4.39-.07Z"/>
        <path class="cls-4" d="m346.47,490.15c-.01,1.21.96,2.2,2.17,2.22h.02c1.2,0,2.18-.97,2.19-2.17l.02-1.7-4.39-.12-.02,1.77Z"/>
        <path class="cls-4" d="m351.08,468.99c.01-1.21-.96-2.2-2.17-2.22-1.19-.02-2.2.96-2.22,2.17v.06c1.46,0,2.92,0,4.39,0h0Z"/>
        <path class="cls-4" d="m330.71,478.95s0,.03,0,.05c.24-.52.48-1.03.74-1.52-.41.36-.7.88-.75,1.47Z"/>
        <path class="cls-4" d="m346.6,477.87c-3.26-.18-6.54-.4-9.83-.64-.43.59-.83,1.23-1.21,1.9,3.68-.04,7.35-.07,11.03-.11v-1.15Z"/>
        <path class="cls-4" d="m350.98,478.97c3.23-.04,6.47-.07,9.7-.11,0,0,.02,0,.02,0-.07-.15-.14-.3-.22-.44-3.18-.08-6.34-.19-9.49-.33v.88Z"/>
        <path class="cls-4" d="m346.59,479.01c-3.68.04-7.35.08-11.03.11-.41.72-.79,1.5-1.14,2.32,4.07.32,8.1.59,12.13.81l.03-3.24Z"/>
        <path class="cls-4" d="m360.7,478.86s-.02,0-.02,0c-3.23.04-6.47.07-9.7.11l-.04,3.51c3.71.17,7.43.29,11.19.37-.31-1.16-.69-2.31-1.17-3.41-.09-.2-.18-.39-.27-.58Z"/>
        <path class="cls-4" d="m365.75,479.66c.09.25.16.51.24.76-.03-.27-.12-.53-.24-.76Z"/>
        <path class="cls-4" d="m335.56,479.13c.38-.67.78-1.31,1.21-1.9-1.23-.09-2.46-.17-3.69-.28-.62-.05-1.19.16-1.62.53-.26.49-.51,1-.74,1.52,0,.06,0,.12,0,.18,1.61-.02,3.23-.03,4.84-.05Z"/>
        <path class="cls-4" d="m364.91,478.8c-.31-.18-.67-.3-1.05-.3-1.13-.02-2.25-.06-3.38-.09.07.15.15.29.22.44,1.4-.02,2.81-.03,4.21-.05Z"/>
        <path class="cls-4" d="m364.91,478.8c-1.4.02-2.81.03-4.21.05.09.19.18.38.27.58.48,1.1.86,2.25,1.17,3.41.55.01,1.1.03,1.65.04.01,0,.03,0,.04,0,1.19,0,2.17-.96,2.19-2.15,0-.11-.01-.21-.03-.31-.08-.25-.16-.51-.24-.76-.19-.36-.48-.66-.83-.86Z"/>
        <path class="cls-4" d="m330.72,479.18c.02,1.11.87,2.05,2,2.14.57.05,1.14.08,1.71.13.35-.82.73-1.59,1.14-2.32-1.61.02-3.23.03-4.84.05Z"/>
        <path class="cls-4" d="m346.6,477.87v1.15c1.45-.02,2.91-.03,4.38-.05v-.88c-1.45-.07-2.92-.14-4.38-.22Z"/>
        <path class="cls-4" d="m346.56,482.26c1.46.08,2.92.15,4.39.21l.04-3.51c-1.46.02-2.93.03-4.39.05l-.03,3.24Z"/>
        <path class="cls-5" d="m512.15,547.38c-.22-3.05-.44-6.12-.68-9.04-.04-.42-.28-.67-.42-.78-.14-.11-.44-.29-.86-.23-1.24.18-2.7.35-4.25.53-.92.11-2.08.24-3.33.4l.94,10.17,8.6-1.04Z"/>
        <path class="cls-5" d="m498.27,538.91c-2.28.4-4.26.88-4.95,1.42-.28,1.28-.11,5.05.21,9.31l5.68-.69-.93-10.05Z"/>
        <path class="cls-5" d="m408.55,521.3c.15.94.28,1.93.4,2.97.17,1.48.32,3.06.44,4.72.29,3.88.45,8.23.51,12.97.02,1.82.03,3.69.03,5.62-.01,4.7-.1,9.7-.26,14.93-.05,1.81-.11,3.65-.18,5.51-.1,2.78-.21,5.61-.34,8.48-.08,1.85-.17,3.72-.26,5.6-.13,2.76-.27,5.55-.42,8.37-.1,1.83-.19,3.67-.29,5.51-.24,4.36-.49,8.74-.74,13.14-.1,1.68-.19,3.36-.29,5.04-.19,3.23-.37,6.45-.56,9.66-.1,1.69-.19,3.38-.29,5.05-.2,3.55-.4,7.07-.58,10.54-.08,1.44-.15,2.88-.22,4.3-.23,4.58-.45,9.05-.62,13.37-.06,1.51-.12,3-.17,4.48-.15,4.11-.26,8.05-.33,11.78.02,0,.04,0,.06-.01,4.86-.93,23.91-8.21,47.1-17.37l.45-56.4c0-1.22.7-2.28,1.69-2.56l31.11-8.83c.64-.18,1.32,0,1.84.48.52.48.84,1.22.86,2.02.28,11.15.34,19.73.4,28.04.05,7.34.1,14.44.31,22.66,16.03-6.41,31.68-12.68,44.27-17.6.16-31.66.58-122.46.29-122.58-.02,0-.05-.01-.07-.02.02.06.05.13.07.19-38.89,13.48-97.43,17.36-124.21,19.94Zm12.89,60.44c-.8-.64-1.3-1.6-1.36-2.62-.07-1.08-.17-2.5-.29-4.12-1.11-15.33-1.54-24.12-.61-26.7,1.17-3.24,6.96-4,16.35-4.86,1.52-.14,2.96-.27,4.14-.41,1.5-.18,3.03.27,4.19,1.24,1.16.97,1.88,2.39,1.97,3.9.24,4.06.44,8.37.63,12.54.22,4.84.45,9.85.75,14.46.07,1.14-.31,2.23-1.08,3.08-.76.83-1.85,1.33-2.98,1.36-4.06.1-8.28.93-12.37,1.74-2.12.42-4.31.85-6.47,1.18h0c-.19.03-.37.04-.56.04-.84,0-1.66-.28-2.32-.81Zm95.42-13.7c-.74.85-1.82,1.37-2.95,1.43-6.26.31-12.57,1.02-18.75,2.11-.21.04-.43.06-.64.06-.81,0-1.6-.26-2.25-.76-.81-.62-1.33-1.57-1.43-2.59-.11-1.28-.29-2.98-.48-4.92-1.44-14.34-2.01-22.08-1.16-24.62,1.1-3.26,6.86-4.16,16.23-5.25,1.52-.18,2.95-.34,4.13-.51,1.5-.22,3.03.2,4.22,1.14,1.18.94,1.93,2.34,2.06,3.85.34,4.05.64,8.35.93,12.51.34,4.84.69,9.85,1.1,14.45.1,1.14-.26,2.24-1.01,3.1Z"/>
        <path class="cls-5" d="m483.19,594.06l-26.81,7.61.07,52.35c8.83-3.5,18.14-7.22,27.41-10.93-.24-8.94-.3-16.51-.35-24.35-.05-7.45-.11-15.13-.32-24.68Z"/>
        <path class="cls-5" d="m429.72,548.47c-2.88.37-5.62.87-6.47,1.51-.34,1.41-.23,5.87.01,10.81l7.25-.71-.8-11.62Z"/>
        <path class="cls-5" d="m493.88,554.02c.3,3.4.63,6.69.85,8.91.16,1.59.3,3.02.41,4.19,1.88-.32,3.77-.6,5.66-.85l-1.2-12.94-5.73.7Z"/>
        <path class="cls-5" d="m505.16,565.75c2.77-.29,5.54-.52,8.31-.66-.38-4.27-.7-8.85-1.01-13.33l-8.5,1.03,1.2,12.95Z"/>
        <path class="cls-5" d="m429.93,577.03c.57-.11,1.15-.23,1.73-.34l-.84-12.23-7.31.71c.22,3.64.48,7.13.65,9.51.09,1.27.18,2.41.24,3.37,1.83-.3,3.71-.67,5.53-1.03Z"/>
        <path class="cls-5" d="m441.98,558.97c-.16-3.54-.33-7.14-.54-10.54-.03-.42-.26-.68-.4-.79-.14-.12-.44-.3-.85-.25-1.24.15-2.71.28-4.26.43-.54.05-1.17.11-1.85.17l.8,11.68,7.1-.69Z"/>
        <path class="cls-5" d="m436,575.91c2.25-.36,4.53-.63,6.81-.7-.25-3.81-.44-7.86-.63-11.86l-7,.68.82,11.87Z"/>
        <path class="cls-5" d="m404.6,639.43c.38,0,.76-.01,1.13-.02.18-3.46.38-6.98.58-10.54-.52,0-1.04.01-1.56.02l-.16,10.54Z"/>
        <path class="cls-5" d="m405.55,576.51c1.21,0,2.41,0,3.62,0,.13-2.87.24-5.7.34-8.48-1.28-.01-2.55-.03-3.83-.05l-.13,8.52Z"/>
        <path class="cls-5" d="m404.84,623.84c.59,0,1.18-.01,1.77-.02.18-3.2.37-6.43.56-9.66-.73,0-1.46.01-2.18.02l-.14,9.66Z"/>
        <path class="cls-5" d="m405.06,609.16c.8-.01,1.6-.02,2.4-.03.25-4.39.5-8.78.74-13.14-.98.02-1.96.04-2.94.05l-.2,13.12Z"/>
        <path class="cls-5" d="m407.1,519.52c-.39.14-.63.26-.7.36l-.07,4.4c.87-.01,1.75-.02,2.62-.02-.12-1.04-.25-2.03-.4-2.97-.25.02-.51.05-.75.07-.24-.61-.47-1.23-.7-1.85Z"/>
        <path class="cls-5" d="m406.06,542.07c1.28-.03,2.56-.07,3.84-.11-.06-4.74-.22-9.1-.51-12.97-1.05.1-2.09.2-3.14.29l-.19,12.79Z"/>
        <path class="cls-5" d="m405.34,590.54c1.05-.02,2.1-.04,3.15-.06.15-2.81.29-5.6.42-8.37-1.15,0-2.3,0-3.44,0l-.13,8.44Z"/>
        <path class="cls-5" d="m405.76,562.49c1.31.01,2.62.02,3.92.03.15-5.23.24-10.23.26-14.93-1.32.03-2.64.06-3.96.09l-.22,14.81Z"/>
        <path class="cls-5" d="m404.34,657.08c.18,0,.37,0,.55,0,.18-4.31.39-8.79.62-13.37-.32,0-.65.01-.97.02l-.2,13.35Z"/>
        <path class="cls-5" d="m404.09,673.39c.1-.02.2-.04.3-.05.07-3.73.18-7.67.33-11.78-.15,0-.3,0-.44,0l-.18,11.84Z"/>
        <path class="cls-5" d="m408.19,519.19c.13.67.25,1.38.36,2.11,26.78-2.59,85.32-6.46,124.21-19.94-.02-.06-.05-.13-.07-.19-5.46-1.64-109.44,13.87-124.5,18.03Z"/>
        <path class="cls-5" d="m407.8,521.37c.25-.02.5-.05.75-.07-.11-.73-.23-1.44-.36-2.11-.44.12-.81.23-1.09.34.24.61.47,1.23.7,1.85Z"/>
        <path class="cls-5" d="m404.27,661.55c.15,0,.3,0,.44,0,.05-1.47.11-2.96.17-4.48-.18,0-.37,0-.55,0l-.07,4.47Z"/>
        <path class="cls-5" d="m404.54,643.73c.32,0,.65-.01.97-.02.07-1.42.15-2.86.22-4.3-.38,0-.76.01-1.13.02l-.06,4.3Z"/>
        <path class="cls-5" d="m404.76,628.89c.52,0,1.04-.01,1.56-.02.1-1.68.19-3.36.29-5.05-.59,0-1.18.01-1.77.02l-.08,5.05Z"/>
        <path class="cls-5" d="m404.98,614.18c.73,0,1.46-.01,2.18-.02.1-1.68.19-3.36.29-5.04-.8.01-1.6.02-2.4.03l-.08,5.03Z"/>
        <path class="cls-5" d="m405.25,596.04c.98-.02,1.96-.04,2.94-.05.1-1.84.2-3.68.29-5.51-1.05.02-2.1.04-3.15.06l-.08,5.5Z"/>
        <path class="cls-5" d="m405.46,582.1c1.15,0,2.3,0,3.44,0,.09-1.88.17-3.75.26-5.6-1.21,0-2.41,0-3.62,0l-.08,5.59Z"/>
        <path class="cls-5" d="m405.67,567.98c1.28.01,2.55.03,3.83.05.07-1.86.13-3.7.18-5.51-1.31,0-2.62-.02-3.92-.03l-.08,5.5Z"/>
        <path class="cls-5" d="m405.98,547.67c1.32-.03,2.64-.06,3.96-.09,0-1.93,0-3.8-.03-5.62-1.28.04-2.56.07-3.84.11l-.08,5.6Z"/>
        <path class="cls-5" d="m406.33,524.28l-.07,5c1.05-.09,2.09-.19,3.14-.29-.12-1.67-.27-3.24-.44-4.72-.87,0-1.75,0-2.62.02Z"/>
        <path class="cls-4" d="m456.38,601.67l26.81-7.61c.21,9.55.27,17.23.32,24.68.06,7.84.11,15.41.35,24.35,1.45-.58,2.9-1.16,4.34-1.74-.21-8.22-.26-15.32-.31-22.66-.06-8.3-.12-16.89-.4-28.04-.02-.79-.33-1.53-.86-2.02-.52-.48-1.2-.66-1.84-.48l-31.11,8.83c-.99.28-1.68,1.34-1.69,2.56l-.45,56.4c1.61-.64,3.25-1.28,4.9-1.94l-.07-52.35Z"/>
        <path class="cls-4" d="m424.31,582.51h0c2.16-.33,4.35-.76,6.47-1.18,4.09-.8,8.31-1.64,12.37-1.74,1.13-.03,2.22-.52,2.98-1.36.77-.84,1.15-1.94,1.08-3.08-.3-4.61-.53-9.62-.75-14.46-.19-4.17-.39-8.48-.63-12.54-.09-1.51-.81-2.93-1.97-3.9-1.16-.97-2.69-1.42-4.19-1.24-1.18.14-2.62.27-4.14.41-9.39.87-15.18,1.62-16.35,4.86-.93,2.58-.51,11.37.61,26.7.12,1.62.22,3.03.29,4.12.07,1.02.56,1.98,1.36,2.62.66.53,1.48.81,2.32.81.19,0,.37-.01.56-.04Zm-.66-4.34h0,0Zm.51-3.49c-.17-2.38-.43-5.87-.65-9.51l-3.29.32-.43-4.37,3.47-.34c-.25-4.94-.35-9.4-.01-10.81.85-.64,3.59-1.14,6.47-1.51l-.09-1.33,4.38-.3.08,1.15c.68-.07,1.31-.12,1.85-.17,1.55-.14,3.02-.28,4.26-.43.42-.05.71.14.85.25.14.12.38.37.4.79.2,3.4.37,7,.54,10.54l3.59-.35.43,4.37-3.81.37c.19,4,.38,8.05.63,11.86-2.28.07-4.56.34-6.81.7l.21,3-4.38.3-.17-2.52c-.58.11-1.16.23-1.73.34-1.82.36-3.7.73-5.53,1.03-.07-.96-.15-2.1-.24-3.37Z"/>
        <path class="cls-4" d="m434.88,559.66l-.8-11.68c-1.33.13-2.87.29-4.36.48l.8,11.62,4.37-.43Z"/>
        <path class="cls-4" d="m435.18,564.04l-4.37.43.84,12.23c1.44-.28,2.88-.55,4.34-.78l-.82-11.87Z"/>
        <path class="cls-4" d="m434,546.84l-4.38.3.09,1.33c1.5-.19,3.03-.35,4.36-.48l-.08-1.15Z"/>
        <path class="cls-4" d="m431.66,576.69l.17,2.52,4.38-.3-.21-3c-1.46.23-2.91.5-4.34.78Z"/>
        <path class="cls-4" d="m430.52,560.09l-7.25.71c.07,1.44.16,2.92.25,4.38l7.31-.71-.3-4.38Z"/>
        <path class="cls-4" d="m435.18,564.04l7-.68c-.04-.82-.08-1.64-.11-2.46-.03-.64-.06-1.29-.09-1.93l-7.1.69.3,4.38Z"/>
        <path class="cls-4" d="m423.26,560.79l-3.47.34.43,4.37,3.29-.32c-.09-1.46-.17-2.94-.25-4.38Z"/>
        <path class="cls-4" d="m442.18,563.36l3.81-.37-.43-4.37-3.59.35c.03.65.06,1.29.09,1.93.04.81.08,1.64.11,2.46Z"/>
        <polygon class="cls-4" points="434.88 559.66 430.52 560.09 430.82 564.47 435.18 564.04 434.88 559.66"/>
        <path class="cls-4" d="m516.77,550.48c-.29-4.16-.59-8.46-.93-12.51-.13-1.51-.88-2.91-2.06-3.85-1.18-.94-2.72-1.36-4.22-1.14-1.18.17-2.61.34-4.13.51-9.37,1.09-15.13,1.99-16.23,5.25-.85,2.54-.28,10.28,1.16,24.62.19,1.93.36,3.63.48,4.92.09,1.02.61,1.96,1.43,2.59.65.49,1.44.76,2.25.76.21,0,.43-.02.64-.06,6.18-1.09,12.49-1.8,18.75-2.11,1.13-.06,2.21-.57,2.95-1.43.75-.86,1.11-1.96,1.01-3.1-.41-4.6-.76-9.61-1.1-14.45Zm-4.31,1.28c.31,4.47.64,9.05,1.01,13.33-2.77.14-5.54.37-8.31.66l.29,3.15-4.37.41-.28-3.04c-1.89.25-3.79.53-5.66.85-.11-1.18-.25-2.61-.41-4.19-.22-2.22-.55-5.5-.85-8.91l-3.18.39-.53-4.36,3.35-.41c-.32-4.26-.48-8.04-.21-9.31.69-.55,2.67-1.02,4.95-1.42l-.15-1.62,4.37-.4.13,1.38c1.25-.16,2.41-.3,3.33-.4,1.55-.18,3.02-.35,4.25-.53.42-.06.72.12.86.23.14.11.38.36.42.78.24,2.92.47,5.99.68,9.04l3.73-.45.53,4.36-3.95.48Z"/>
        <path class="cls-4" d="m499.6,553.33l1.2,12.94c1.45-.19,2.9-.37,4.36-.52l-1.2-12.95-4.36.53Z"/>
        <path class="cls-4" d="m503.56,548.43l-.94-10.17c-1.41.18-2.94.4-4.35.65l.93,10.05,4.36-.53Z"/>
        <path class="cls-4" d="m502.49,536.88l-4.37.4.15,1.62c1.41-.25,2.93-.46,4.35-.65l-.13-1.38Z"/>
        <path class="cls-4" d="m501.09,569.31l4.37-.41-.29-3.15c-1.46.15-2.91.33-4.36.52l.28,3.04Z"/>
        <path class="cls-4" d="m512.15,547.38l-8.6,1.04.41,4.37,8.5-1.03c-.02-.32-.05-.65-.07-.98-.08-1.13-.16-2.27-.24-3.41Z"/>
        <path class="cls-4" d="m499.2,548.96l-5.68.69c.11,1.43.23,2.91.36,4.38l5.73-.7-.41-4.37Z"/>
        <path class="cls-4" d="m490.17,550.05l.53,4.36,3.18-.39c-.13-1.46-.25-2.95-.36-4.38l-3.35.41Z"/>
        <path class="cls-4" d="m512.15,547.38c.08,1.14.16,2.28.24,3.41.02.32.05.65.07.98l3.95-.48-.53-4.36-3.73.45Z"/>
        <polygon class="cls-4" points="499.6 553.33 503.96 552.8 503.56 548.43 499.2 548.96 499.6 553.33"/>
        <path class="cls-1" d="m455.91,666.49c-.41.19-.85.36-1.3.52-.96.38-1.92.76-2.87,1.14-.09.05-.19.1-.28.16v-.05c-18.25,7.27-35.54,14.05-47.56,18.76v-.47c-44.37,0-122.85-5.26-122.78-7.33.08-2.21.14-4.69.19-7.35-1.66-.05-3.25-.08-4.78-.1l.08,15.97s116.55,5.59,128.47,1.25c55.15-20.05,90.53-40.87,130.35-51.81v-14.58c-.96.37-1.95.76-2.95,1.15-.03,6.68-.05,10.73-.05,10.73-14.68,7.02-46.43,19.99-76.51,32Z"/>
        <path class="cls-1" d="m403.9,686.56l.2-13.17c-35.6,6.71-90.56-.54-122.79-1.52-.05,2.66-.11,5.14-.19,7.35-.07,2.07,78.41,7.32,122.78,7.33Z"/>
        <path class="cls-1" d="m454.6,667.01c-.99.35-2.01.66-2.87,1.14.95-.38,1.91-.76,2.87-1.14Z"/>
        <path class="cls-1" d="m404.39,686.56c-.16,0-.33,0-.5,0v.47c12.02-4.71,29.3-11.49,47.55-18.76l.1-12.31c-23.19,9.16-42.25,16.44-47.1,17.37-.02,0-.04,0-.06.01-.08,4.78-.09,9.22,0,13.22Z"/>
        <path class="cls-1" d="m488.53,651.66c-1.43.73-2.87,1.44-4.31,2.15-.16-3.83-.27-7.37-.36-10.72-9.27,3.71-18.58,7.42-27.41,10.93l.02,12.18c-.18.1-.36.2-.56.29,30.08-12,61.83-24.97,76.51-32,0,0,.02-4.05.05-10.73-12.59,4.92-28.25,11.19-44.27,17.6.08,3.23.19,6.63.33,10.3Z"/>
        <path class="cls-1" d="m403.9,686.56c.16,0,.33,0,.5,0-.09-4-.09-8.44,0-13.22-.1.02-.2.04-.3.05l-.2,13.17Z"/>
        <path class="cls-1" d="m451.45,668.31c.09-.06.19-.11.28-.16-.09.04-.19.08-.28.11v.05Z"/>
        <path class="cls-1" d="m455.91,666.49c-.44.17-.87.35-1.3.52.45-.16.89-.33,1.3-.52Z"/>
        <path class="cls-1" d="m484.22,653.81c1.44-.71,2.87-1.43,4.31-2.15-.14-3.67-.25-7.07-.33-10.3-1.45.58-2.89,1.16-4.34,1.74.09,3.35.21,6.89.36,10.72Z"/>
        <path class="cls-1" d="m451.45,668.27c.09-.04.19-.08.28-.11.86-.48,1.88-.8,2.87-1.14.43-.17.87-.35,1.3-.52.19-.09.38-.19.56-.29l-.02-12.18c-1.65.65-3.28,1.3-4.9,1.94l-.1,12.31Z"/>
      </g>
      <g>
        <path class="cls-3" d="m161.58,470.3c-.28,5.51-.52,11.02-.73,16.54.65-.64,1.64-.88,2.55-.54,1.07.4,1.69,1.48,1.56,2.57.21.49.42.97.63,1.46.25-7.27.58-14.53.96-21.79-.68-1.44-1.34-2.9-1.97-4.37-.94,2.07-1.94,4.11-3.01,6.12Z"/>
        <path class="cls-3" d="m159.96,530.41c-.02,7.05.02,14.1.12,21.15.06-.16.12-.32.18-.48.07-.17.15-.33.25-.48.01-.92.55-1.8,1.44-2.2,1.08-.48,2.31-.11,2.97.81-.08-6.84-.11-13.69-.08-20.54-.73-1.48-1.42-2.97-2.09-4.49-.87,2.1-1.8,4.18-2.8,6.22Z"/>
        <path class="cls-3" d="m161.21,589.98c.51,11.5,1.18,22.98,2.01,34.42.09,1.28,1.16,2.26,2.43,2.26.06,0,.12,0,.18,0,1.34-.1,2.35-1.26,2.25-2.61-.8-11.05-1.45-22.14-1.96-33.24-.95-1.93-1.85-3.88-2.69-5.86-.7,1.7-1.44,3.37-2.22,5.03Z"/>
        <path class="cls-3" d="m160.3,563.26c.12,5.22.28,10.43.47,15.64.23-.25.52-.44.83-.57.26-.56.73-1.03,1.36-1.26.96-.36,2-.07,2.65.64-.2-5.74-.37-11.48-.49-17.22-.66-1.19-1.29-2.4-1.91-3.61-.9,2.16-1.88,4.29-2.91,6.38Z"/>
        <path class="cls-3" d="m160.42,499.65c-.17,6.15-.29,12.3-.36,18.46.22-.27.49-.48.79-.63.26-.54.71-1,1.32-1.23,1.02-.39,2.14-.05,2.78.77.07-5.44.17-10.87.32-16.3-.98-1.8-1.91-3.63-2.79-5.49-.65,1.49-1.33,2.97-2.05,4.43Z"/>
        <path class="cls-3" d="m144.78,490.5c.46.38,1.01.57,1.56.57.7,0,1.39-.3,1.87-.87,5.16-6.16,9.63-12.82,13.36-19.89.19-3.75.4-7.49.62-11.24.04-.66.34-1.24.79-1.65.24-.36.57-.66.98-.86-.89.07-1.7.62-2.06,1.5-4.27,10.53-10.14,20.29-17.43,29.01-.86,1.03-.73,2.57.3,3.43Z"/>
        <path class="cls-3" d="m162.74,459.59c-.28-.75-.16-1.55.24-2.17-.45.41-.75.99-.79,1.65-.23,3.74-.43,7.49-.62,11.24,1.06-2.01,2.06-4.05,3.01-6.12-.64-1.52-1.26-3.04-1.84-4.59Z"/>
        <path class="cls-3" d="m160.35,490.5c-.38-.91-.17-1.91.46-2.59.01-.35.03-.71.04-1.06-.25.24-.45.54-.59.88-3.99,10.64-9.58,20.56-16.64,29.47-.84,1.05-.66,2.59.4,3.42.45.35.98.53,1.51.53.72,0,1.43-.32,1.91-.92,5.06-6.39,9.41-13.28,12.98-20.57.08-2.8.16-5.59.26-8.38-.11-.26-.23-.51-.33-.77Z"/>
        <path class="cls-3" d="m161.65,487.31c1.24-.52,2.67.06,3.19,1.3.04.09.08.18.12.27.13-1.09-.48-2.17-1.56-2.57-.91-.34-1.9-.09-2.55.54-.01.35-.03.71-.04,1.06.23-.25.51-.46.84-.6Z"/>
        <path class="cls-3" d="m160.68,491.27c-.1,2.79-.18,5.59-.26,8.38.72-1.46,1.4-2.94,2.05-4.43-.62-1.31-1.22-2.62-1.79-3.95Z"/>
        <path class="cls-3" d="m159.65,518.8c-3.99,10.64-9.58,20.56-16.64,29.47-.84,1.05-.66,2.59.4,3.42.45.35.98.53,1.51.53.72,0,1.43-.32,1.91-.92,5.13-6.48,9.52-13.48,13.13-20.88.01-4.1.05-8.2.1-12.3-.17.2-.31.43-.41.69Z"/>
        <path class="cls-3" d="m160.77,519.4c-.25-.65-.2-1.34.08-1.92-.3.15-.57.37-.79.63-.05,4.1-.09,8.2-.1,12.3.99-2.04,1.93-4.12,2.8-6.22-.7-1.58-1.36-3.18-1.98-4.8Z"/>
        <path class="cls-3" d="m143.62,580.55c-.84,1.05-.66,2.59.4,3.42.45.35.98.53,1.51.53.72,0,1.43-.32,1.91-.92,5-6.32,9.3-13.12,12.85-20.32-.09-3.9-.16-7.8-.22-11.7-3.97,10.46-9.5,20.22-16.45,28.99Z"/>
        <path class="cls-3" d="m160.71,551.62c-.15-.33-.21-.68-.2-1.02-.1.15-.18.31-.25.48-.06.16-.12.32-.18.48.05,3.9.13,7.8.22,11.7,1.03-2.1,2.01-4.22,2.91-6.38-.87-1.73-1.71-3.48-2.49-5.25Z"/>
        <path class="cls-3" d="m160.26,579.71c-3.99,10.64-9.58,20.56-16.64,29.47-.84,1.05-.66,2.59.4,3.42.45.35.98.53,1.51.53.72,0,1.43-.32,1.91-.92,5.44-6.87,10.05-14.32,13.77-22.22-.17-3.69-.31-7.39-.45-11.08-.21.23-.39.5-.51.81Z"/>
        <path class="cls-3" d="m161.53,580.2c-.24-.63-.19-1.31.07-1.88-.31.13-.6.32-.83.57.13,3.7.28,7.39.45,11.08.78-1.66,1.52-3.34,2.22-5.03-.67-1.57-1.31-3.15-1.91-4.75Z"/>
        <path class="cls-3" d="m165.08,456.71c.17.07.32.16.46.25.94.38,1.58,1.32,1.51,2.39-.18,3.06-.35,6.12-.51,9.19,3.68,7.76,8.23,15.07,13.58,21.83.48.61,1.19.92,1.91.92.53,0,1.06-.17,1.51-.53,1.05-.84,1.23-2.37.4-3.42-7.05-8.91-12.65-18.83-16.64-29.47-.47-1.26-1.88-1.9-3.14-1.43-.07.03-.14.07-.2.1.37-.03.75.01,1.11.16Z"/>
        <path class="cls-3" d="m165.55,456.97c.92.63,1.31,1.84.88,2.92-.59,1.44-1.2,2.87-1.85,4.29.62,1.47,1.28,2.93,1.97,4.37.16-3.06.33-6.13.51-9.19.06-1.07-.57-2.01-1.51-2.39Z"/>
        <path class="cls-3" d="m162.99,457.42c.47-.43,1.11-.68,1.79-.64.28.02.53.09.77.19-.14-.1-.3-.19-.46-.25-.37-.15-.75-.19-1.11-.16-.41.2-.75.5-.98.86Z"/>
        <path class="cls-3" d="m162.74,459.59c.58,1.55,1.19,3.07,1.84,4.59.64-1.42,1.26-2.85,1.85-4.29.44-1.08.04-2.29-.88-2.92-.24-.1-.5-.17-.77-.19-.68-.04-1.32.21-1.79.64-.4.63-.52,1.42-.24,2.17Z"/>
        <path class="cls-3" d="m178.97,520.55c.48.56,1.16.85,1.85.85.56,0,1.13-.19,1.59-.59,1.02-.88,1.14-2.42.26-3.44-7-8.14-12.74-17.23-17.07-27.04-.12,3.46-.23,6.92-.32,10.38,3.85,7.07,8.43,13.71,13.7,19.84Z"/>
        <path class="cls-3" d="m164.83,489.44c-.73,1.95-1.52,3.88-2.35,5.79.88,1.86,1.81,3.69,2.79,5.49.09-3.46.2-6.92.32-10.38-.21-.48-.42-.97-.63-1.46-.02.19-.06.38-.13.56Z"/>
        <path class="cls-3" d="m160.35,490.5c.11.26.22.51.33.77.04-1.12.08-2.24.12-3.36-.63.68-.84,1.69-.46,2.59Z"/>
        <path class="cls-3" d="m161.65,487.31c-.33.14-.61.35-.84.6-.04,1.12-.08,2.24-.12,3.36.57,1.33,1.17,2.65,1.79,3.95.83-1.9,1.62-3.83,2.35-5.79.07-.19.11-.37.13-.56-.04-.09-.08-.18-.12-.27-.52-1.24-1.95-1.82-3.19-1.3Z"/>
        <path class="cls-3" d="m178.47,550.01c.48.6,1.19.9,1.9.9.54,0,1.08-.18,1.53-.54,1.05-.85,1.21-2.38.36-3.43-7.15-8.84-12.85-18.7-16.94-29.3-.09-.23-.22-.44-.37-.63-.05,3.89-.09,7.78-.11,11.66,3.73,7.58,8.29,14.73,13.62,21.32Z"/>
        <path class="cls-3" d="m162.17,516.25c-.61.23-1.06.69-1.32,1.23.58-.29,1.28-.35,1.94-.11,1.26.47,1.9,1.88,1.43,3.14-.46,1.24-.95,2.47-1.46,3.69.66,1.51,1.36,3.01,2.09,4.49.02-3.89.05-7.78.11-11.66-.64-.82-1.76-1.16-2.78-.77Z"/>
        <path class="cls-3" d="m160.77,519.4c.62,1.62,1.29,3.22,1.98,4.8.51-1.22,1-2.45,1.46-3.69.47-1.26-.17-2.66-1.43-3.14-.66-.25-1.35-.18-1.94.11-.28.58-.33,1.27-.08,1.92Z"/>
        <path class="cls-3" d="m164.96,552.19c.04,2.76.1,5.53.15,8.29,4.12,7.47,9.05,14.46,14.75,20.85.48.54,1.15.82,1.82.82.58,0,1.16-.2,1.62-.62,1-.9,1.09-2.44.2-3.44-7.56-8.48-13.73-18.05-18.33-28.45-.07-.15-.15-.3-.24-.43,0,.81.01,1.61.02,2.42.02.18.03.37,0,.55Z"/>
        <path class="cls-3" d="m161.96,548.4c-.9.4-1.43,1.27-1.44,2.2.61-.93,1.8-1.35,2.89-.95.88.33,1.45,1.11,1.55,1.99-.01-.81-.02-1.61-.02-2.42-.66-.93-1.89-1.29-2.97-.81Z"/>
        <path class="cls-3" d="m164.83,552.79c-.51,1.37-1.05,2.73-1.62,4.08.61,1.22,1.25,2.42,1.91,3.61-.06-2.76-.11-5.53-.15-8.29-.02.2-.06.4-.13.6Z"/>
        <path class="cls-3" d="m164.95,551.64c0,.18,0,.37,0,.55.02-.19.02-.37,0-.55Z"/>
        <path class="cls-3" d="m160.71,551.62c.79,1.78,1.62,3.53,2.49,5.25.56-1.35,1.1-2.71,1.62-4.08.07-.2.11-.4.13-.6,0-.18,0-.37,0-.55-.11-.87-.67-1.66-1.55-1.99-1.09-.41-2.28.01-2.89.95,0,.34.06.69.2,1.02Z"/>
        <path class="cls-3" d="m178.91,610.99c.48.61,1.19.92,1.91.92.53,0,1.06-.17,1.51-.53,1.05-.84,1.23-2.37.4-3.42-7.05-8.91-12.65-18.83-16.64-29.47-.11-.3-.28-.57-.49-.79.15,4.37.33,8.74.53,13.11,3.54,7.14,7.81,13.9,12.78,20.18Z"/>
        <path class="cls-3" d="m162.95,577.07c-.63.23-1.1.7-1.36,1.26.55-.23,1.19-.27,1.8-.04,1.26.47,1.9,1.88,1.43,3.14-.44,1.19-.91,2.36-1.39,3.53.84,1.98,1.74,3.93,2.69,5.86-.2-4.37-.37-8.74-.53-13.11-.65-.71-1.69-.99-2.65-.64Z"/>
        <path class="cls-3" d="m161.53,580.2c.6,1.6,1.24,3.18,1.91,4.75.48-1.17.95-2.34,1.39-3.53.47-1.26-.17-2.66-1.43-3.14-.61-.23-1.25-.19-1.8.04-.26.57-.31,1.24-.07,1.88Z"/>
      </g>
      <g>
        <path class="cls-3" d="m591.14,496.96c-.28,5.51-.52,11.02-.73,16.54.65-.64,1.64-.88,2.55-.54,1.07.4,1.69,1.48,1.56,2.57.21.49.42.97.63,1.46.25-7.27.58-14.53.96-21.79-.68-1.44-1.34-2.9-1.97-4.37-.94,2.07-1.94,4.11-3.01,6.12Z"/>
        <path class="cls-3" d="m589.52,557.08c-.02,7.05.02,14.1.12,21.15.06-.16.12-.32.18-.48.07-.17.15-.33.25-.48.01-.92.55-1.8,1.44-2.2,1.08-.48,2.31-.11,2.97.81-.08-6.85-.11-13.69-.08-20.54-.73-1.48-1.42-2.97-2.09-4.49-.87,2.1-1.8,4.18-2.8,6.22Z"/>
        <path class="cls-3" d="m590.78,616.65c.51,11.5,1.18,22.98,2.01,34.42.09,1.28,1.16,2.26,2.43,2.26.06,0,.12,0,.18,0,1.34-.1,2.35-1.26,2.25-2.61-.8-11.05-1.45-22.14-1.96-33.24-.95-1.93-1.85-3.88-2.69-5.86-.7,1.7-1.44,3.37-2.22,5.03Z"/>
        <path class="cls-3" d="m589.86,589.92c.12,5.22.28,10.43.47,15.64.23-.25.52-.44.83-.57.26-.56.73-1.03,1.36-1.26.96-.36,2-.07,2.65.64-.2-5.74-.37-11.48-.49-17.22-.66-1.19-1.29-2.4-1.91-3.61-.9,2.16-1.88,4.29-2.91,6.38Z"/>
        <path class="cls-3" d="m589.99,526.31c-.17,6.15-.29,12.3-.36,18.46.22-.27.49-.48.79-.63.26-.54.71-.99,1.32-1.23,1.02-.39,2.14-.05,2.78.77.07-5.44.17-10.87.32-16.3-.98-1.8-1.91-3.63-2.79-5.49-.65,1.49-1.33,2.97-2.05,4.43Z"/>
        <path class="cls-3" d="m574.34,517.16c.46.38,1.01.57,1.56.57.7,0,1.39-.3,1.87-.87,5.16-6.16,9.63-12.82,13.36-19.89.19-3.75.4-7.49.62-11.24.04-.66.34-1.24.79-1.65.24-.36.57-.66.98-.86-.89.07-1.7.62-2.06,1.5-4.27,10.53-10.14,20.29-17.43,29.01-.86,1.03-.73,2.57.3,3.43Z"/>
        <path class="cls-3" d="m592.31,486.25c-.28-.75-.16-1.55.24-2.17-.45.41-.75.99-.79,1.65-.23,3.74-.43,7.49-.62,11.24,1.06-2.01,2.06-4.05,3.01-6.12-.64-1.52-1.26-3.04-1.84-4.59Z"/>
        <path class="cls-3" d="m589.91,517.16c-.38-.91-.17-1.91.46-2.59.01-.35.03-.71.04-1.06-.25.24-.45.54-.59.88-3.99,10.64-9.58,20.56-16.64,29.47-.84,1.05-.66,2.59.4,3.42.45.35.98.53,1.51.53.72,0,1.43-.32,1.91-.92,5.06-6.39,9.41-13.28,12.98-20.57.08-2.8.16-5.59.26-8.38-.11-.26-.23-.51-.33-.77Z"/>
        <path class="cls-3" d="m591.21,513.97c1.24-.52,2.67.06,3.19,1.3.04.09.08.18.12.27.13-1.09-.48-2.17-1.56-2.57-.91-.34-1.9-.09-2.55.54-.01.35-.03.71-.04,1.06.23-.25.51-.46.84-.6Z"/>
        <path class="cls-3" d="m590.25,517.93c-.1,2.79-.18,5.59-.26,8.38.72-1.46,1.4-2.94,2.05-4.43-.62-1.31-1.22-2.62-1.79-3.95Z"/>
        <path class="cls-3" d="m589.22,545.46c-3.99,10.64-9.58,20.56-16.64,29.47-.84,1.05-.66,2.59.4,3.42.45.35.98.53,1.51.53.72,0,1.43-.32,1.91-.92,5.13-6.48,9.52-13.48,13.13-20.88.01-4.1.05-8.2.1-12.3-.17.2-.31.43-.41.69Z"/>
        <path class="cls-3" d="m590.34,546.06c-.25-.65-.2-1.34.08-1.92-.3.15-.57.37-.79.63-.05,4.1-.09,8.2-.1,12.3.99-2.04,1.93-4.11,2.8-6.22-.7-1.58-1.36-3.18-1.98-4.8Z"/>
        <path class="cls-3" d="m573.19,607.22c-.84,1.05-.66,2.59.4,3.42.45.35.98.53,1.51.53.72,0,1.43-.32,1.91-.92,5-6.32,9.3-13.12,12.85-20.32-.09-3.9-.16-7.8-.22-11.7-3.97,10.46-9.5,20.22-16.45,28.99Z"/>
        <path class="cls-3" d="m590.28,578.28c-.15-.33-.21-.68-.2-1.02-.1.15-.18.31-.25.48-.06.16-.12.32-.18.48.05,3.9.13,7.8.22,11.7,1.03-2.1,2.01-4.22,2.91-6.38-.87-1.73-1.71-3.48-2.49-5.25Z"/>
        <path class="cls-3" d="m589.82,606.38c-3.99,10.64-9.58,20.56-16.64,29.47-.84,1.05-.66,2.59.4,3.42.45.35.98.53,1.51.53.72,0,1.43-.32,1.91-.92,5.44-6.87,10.05-14.32,13.77-22.22-.17-3.69-.31-7.39-.45-11.08-.21.23-.39.5-.51.81Z"/>
        <path class="cls-3" d="m591.09,606.87c-.24-.63-.19-1.31.07-1.88-.31.13-.6.32-.83.57.13,3.7.28,7.39.45,11.08.78-1.66,1.52-3.34,2.22-5.03-.67-1.57-1.31-3.15-1.91-4.75Z"/>
        <path class="cls-3" d="m594.65,483.38c.17.07.32.16.46.25.94.38,1.58,1.32,1.51,2.39-.18,3.06-.35,6.12-.51,9.19,3.68,7.76,8.23,15.07,13.58,21.83.48.61,1.19.92,1.91.92.53,0,1.06-.17,1.51-.53,1.05-.84,1.23-2.37.4-3.42-7.05-8.91-12.65-18.83-16.64-29.47-.47-1.26-1.88-1.9-3.14-1.43-.07.03-.14.07-.2.1.37-.03.75.01,1.11.16Z"/>
        <path class="cls-3" d="m595.11,483.63c.92.63,1.31,1.84.88,2.92-.59,1.44-1.2,2.87-1.85,4.29.62,1.47,1.28,2.93,1.97,4.37.16-3.06.33-6.13.51-9.19.06-1.07-.57-2.01-1.51-2.39Z"/>
        <path class="cls-3" d="m592.55,484.08c.47-.43,1.11-.68,1.79-.64.28.02.53.09.77.19-.14-.1-.3-.19-.46-.25-.37-.15-.75-.19-1.11-.16-.41.2-.75.5-.98.86Z"/>
        <path class="cls-3" d="m592.31,486.25c.58,1.55,1.19,3.07,1.84,4.59.64-1.42,1.26-2.85,1.85-4.29.44-1.08.04-2.29-.88-2.92-.24-.1-.5-.17-.77-.19-.68-.04-1.32.21-1.79.64-.4.63-.52,1.42-.24,2.17Z"/>
        <path class="cls-3" d="m608.53,547.22c.48.56,1.16.85,1.85.85.56,0,1.13-.19,1.59-.59,1.02-.88,1.14-2.42.26-3.44-7-8.14-12.74-17.23-17.07-27.04-.12,3.46-.23,6.92-.32,10.38,3.85,7.07,8.43,13.71,13.7,19.84Z"/>
        <path class="cls-3" d="m594.39,516.1c-.73,1.95-1.52,3.88-2.35,5.79.88,1.86,1.81,3.69,2.79,5.49.09-3.46.2-6.92.32-10.38-.21-.48-.42-.97-.63-1.46-.02.19-.06.38-.13.56Z"/>
        <path class="cls-3" d="m589.91,517.16c.11.26.22.51.33.77.04-1.12.08-2.24.12-3.36-.62.68-.84,1.69-.46,2.59Z"/>
        <path class="cls-3" d="m591.21,513.97c-.33.14-.61.35-.84.6-.04,1.12-.08,2.24-.12,3.36.57,1.33,1.17,2.65,1.79,3.95.83-1.9,1.62-3.83,2.35-5.79.07-.19.11-.37.13-.56-.04-.09-.08-.18-.12-.27-.52-1.24-1.95-1.82-3.19-1.3Z"/>
        <path class="cls-3" d="m608.03,576.67c.48.6,1.19.9,1.9.9.54,0,1.08-.18,1.53-.54,1.05-.85,1.21-2.38.36-3.43-7.15-8.84-12.85-18.7-16.94-29.3-.09-.23-.22-.44-.37-.63-.05,3.89-.09,7.78-.11,11.66,3.73,7.58,8.29,14.73,13.62,21.32Z"/>
        <path class="cls-3" d="m591.73,542.91c-.61.23-1.06.69-1.32,1.23.58-.29,1.28-.35,1.94-.11,1.26.47,1.9,1.88,1.43,3.14-.46,1.24-.95,2.47-1.46,3.69.66,1.51,1.36,3.01,2.09,4.49.02-3.89.05-7.78.11-11.66-.64-.82-1.76-1.16-2.78-.77Z"/>
        <path class="cls-3" d="m590.34,546.06c.62,1.62,1.29,3.22,1.98,4.8.51-1.22,1-2.45,1.46-3.69.47-1.26-.17-2.66-1.43-3.14-.66-.25-1.35-.18-1.94.11-.28.58-.33,1.27-.08,1.92Z"/>
        <path class="cls-3" d="m594.52,578.85c.04,2.76.1,5.53.15,8.29,4.12,7.47,9.05,14.46,14.75,20.85.48.54,1.15.82,1.82.82.58,0,1.16-.2,1.62-.62,1-.9,1.09-2.44.2-3.44-7.56-8.48-13.73-18.05-18.33-28.45-.07-.15-.15-.3-.24-.43,0,.81.01,1.61.03,2.42.02.18.03.37,0,.55Z"/>
        <path class="cls-3" d="m591.52,575.07c-.9.4-1.43,1.27-1.44,2.2.61-.93,1.8-1.35,2.89-.95.88.33,1.45,1.11,1.55,1.99-.01-.81-.02-1.61-.03-2.42-.66-.93-1.89-1.29-2.97-.81Z"/>
        <path class="cls-3" d="m594.39,579.45c-.51,1.37-1.05,2.73-1.62,4.08.61,1.22,1.25,2.42,1.91,3.61-.06-2.76-.11-5.53-.15-8.29-.02.2-.06.4-.13.6Z"/>
        <path class="cls-3" d="m594.51,578.3c0,.18,0,.37,0,.55.02-.19.02-.37,0-.55Z"/>
        <path class="cls-3" d="m590.28,578.28c.79,1.78,1.62,3.53,2.49,5.25.56-1.35,1.1-2.71,1.62-4.08.07-.2.11-.4.13-.6,0-.18,0-.37,0-.55-.11-.87-.67-1.66-1.55-1.99-1.09-.41-2.28.01-2.89.95,0,.34.06.69.2,1.02Z"/>
        <path class="cls-3" d="m608.47,637.65c.48.61,1.19.92,1.91.92.53,0,1.06-.17,1.51-.53,1.05-.83,1.23-2.37.4-3.42-7.05-8.91-12.65-18.83-16.64-29.47-.11-.3-.28-.57-.49-.79.15,4.37.33,8.74.53,13.11,3.54,7.14,7.81,13.9,12.78,20.18Z"/>
        <path class="cls-3" d="m592.52,603.73c-.63.23-1.1.7-1.36,1.26.55-.23,1.19-.27,1.8-.04,1.26.47,1.9,1.88,1.43,3.14-.44,1.19-.91,2.36-1.39,3.53.84,1.98,1.74,3.93,2.69,5.86-.2-4.37-.37-8.74-.53-13.11-.65-.71-1.69-.99-2.65-.64Z"/>
        <path class="cls-3" d="m591.09,606.87c.6,1.6,1.24,3.18,1.91,4.75.48-1.17.95-2.34,1.39-3.53.47-1.26-.17-2.66-1.43-3.14-.61-.23-1.25-.19-1.8.04-.26.57-.31,1.24-.07,1.88Z"/>
      </g>
      <g>
        <path class="cls-3" d="m667.18,415.99c-.28,5.51-.52,11.02-.73,16.54.65-.64,1.64-.88,2.55-.54,1.07.4,1.69,1.48,1.56,2.57.21.49.42.97.63,1.46.25-7.27.58-14.53.96-21.79-.68-1.44-1.34-2.9-1.97-4.37-.94,2.07-1.94,4.11-3.01,6.12Z"/>
        <path class="cls-3" d="m665.56,476.1c-.02,7.05.02,14.1.12,21.15.06-.16.12-.32.18-.48.07-.17.15-.33.25-.48.01-.92.55-1.8,1.44-2.2,1.08-.48,2.31-.11,2.97.81-.08-6.85-.11-13.69-.08-20.54-.73-1.48-1.42-2.97-2.09-4.49-.87,2.1-1.8,4.18-2.8,6.22Z"/>
        <path class="cls-3" d="m666.81,535.67c.51,11.5,1.18,22.98,2.01,34.42.09,1.28,1.16,2.26,2.43,2.26.06,0,.12,0,.18,0,1.34-.1,2.35-1.26,2.25-2.61-.8-11.05-1.45-22.14-1.96-33.24-.95-1.93-1.85-3.88-2.69-5.86-.7,1.7-1.44,3.37-2.22,5.03Z"/>
        <path class="cls-3" d="m665.9,508.94c.12,5.22.28,10.43.47,15.64.23-.25.52-.44.83-.57.26-.56.73-1.03,1.36-1.26.96-.36,2-.07,2.65.64-.2-5.74-.37-11.48-.49-17.22-.66-1.19-1.29-2.4-1.91-3.61-.9,2.16-1.88,4.29-2.91,6.38Z"/>
        <path class="cls-3" d="m666.02,445.34c-.17,6.15-.29,12.3-.36,18.46.22-.27.49-.48.79-.63.26-.54.71-1,1.32-1.23,1.02-.39,2.14-.05,2.78.77.07-5.44.17-10.87.32-16.3-.98-1.8-1.91-3.63-2.79-5.49-.65,1.49-1.33,2.97-2.05,4.43Z"/>
        <path class="cls-3" d="m650.38,436.18c.46.38,1.01.57,1.56.57.7,0,1.39-.3,1.87-.87,5.16-6.16,9.63-12.82,13.36-19.89.19-3.75.4-7.49.62-11.24.04-.66.34-1.24.79-1.65.24-.36.57-.66.98-.86-.89.07-1.7.62-2.06,1.5-4.27,10.53-10.14,20.29-17.43,29.01-.86,1.03-.73,2.57.3,3.43Z"/>
        <path class="cls-3" d="m668.35,405.28c-.28-.75-.16-1.55.24-2.17-.45.41-.75.99-.79,1.65-.23,3.74-.43,7.49-.62,11.24,1.06-2.01,2.06-4.05,3.01-6.12-.64-1.52-1.26-3.04-1.84-4.59Z"/>
        <path class="cls-3" d="m665.95,436.18c-.38-.91-.17-1.91.46-2.59.01-.35.03-.71.04-1.06-.25.24-.45.54-.59.88-3.99,10.64-9.58,20.56-16.64,29.47-.84,1.05-.66,2.59.4,3.42.45.35.98.53,1.51.53.72,0,1.43-.32,1.91-.92,5.06-6.39,9.41-13.28,12.98-20.57.08-2.8.16-5.59.26-8.38-.11-.26-.23-.51-.33-.77Z"/>
        <path class="cls-3" d="m667.25,432.99c1.24-.52,2.67.06,3.19,1.3.04.09.08.18.12.27.13-1.09-.48-2.17-1.56-2.57-.91-.34-1.9-.09-2.55.54-.01.35-.03.71-.04,1.06.23-.25.51-.46.84-.6Z"/>
        <path class="cls-3" d="m666.28,436.96c-.1,2.79-.18,5.59-.26,8.38.72-1.46,1.4-2.94,2.05-4.43-.62-1.31-1.22-2.62-1.79-3.95Z"/>
        <path class="cls-3" d="m665.25,464.48c-3.99,10.64-9.58,20.56-16.64,29.47-.84,1.05-.66,2.59.4,3.42.45.35.98.53,1.51.53.72,0,1.43-.32,1.91-.92,5.13-6.48,9.52-13.48,13.13-20.88.01-4.1.05-8.2.1-12.3-.17.2-.31.43-.41.69Z"/>
        <path class="cls-3" d="m666.37,465.09c-.25-.65-.2-1.34.08-1.92-.3.15-.57.37-.79.63-.05,4.1-.09,8.2-.1,12.3.99-2.04,1.93-4.12,2.8-6.22-.7-1.58-1.36-3.18-1.98-4.8Z"/>
        <path class="cls-3" d="m649.22,526.24c-.84,1.05-.66,2.59.4,3.42.45.35.98.53,1.51.53.72,0,1.43-.32,1.91-.92,5-6.32,9.3-13.12,12.85-20.32-.09-3.9-.16-7.8-.22-11.7-3.97,10.46-9.5,20.22-16.45,28.99Z"/>
        <path class="cls-3" d="m666.31,497.31c-.15-.33-.21-.68-.2-1.02-.1.15-.18.31-.25.48-.06.16-.12.32-.18.48.05,3.9.13,7.8.22,11.7,1.03-2.1,2.01-4.22,2.91-6.38-.87-1.73-1.71-3.48-2.49-5.25Z"/>
        <path class="cls-3" d="m665.86,525.4c-3.99,10.64-9.58,20.56-16.64,29.47-.84,1.05-.66,2.59.4,3.42.45.35.98.53,1.51.53.72,0,1.43-.32,1.91-.92,5.44-6.87,10.05-14.32,13.77-22.22-.17-3.69-.31-7.39-.45-11.08-.21.23-.39.5-.51.81Z"/>
        <path class="cls-3" d="m667.13,525.89c-.24-.63-.19-1.31.07-1.88-.31.13-.6.32-.83.57.13,3.7.28,7.39.45,11.08.78-1.66,1.52-3.34,2.22-5.03-.67-1.57-1.31-3.15-1.91-4.75Z"/>
        <path class="cls-3" d="m670.69,402.4c.17.07.32.16.46.25.94.38,1.58,1.32,1.51,2.39-.18,3.06-.35,6.12-.51,9.19,3.68,7.76,8.23,15.07,13.58,21.83.48.61,1.19.92,1.91.92.53,0,1.06-.17,1.51-.53,1.05-.84,1.23-2.37.4-3.42-7.05-8.91-12.65-18.83-16.64-29.47-.47-1.26-1.88-1.9-3.14-1.43-.07.03-.14.07-.2.1.37-.03.75.01,1.12.16Z"/>
        <path class="cls-3" d="m671.15,402.65c.92.63,1.31,1.84.88,2.92-.59,1.44-1.2,2.87-1.85,4.29.62,1.47,1.28,2.93,1.97,4.37.16-3.06.33-6.13.51-9.19.06-1.07-.57-2.01-1.51-2.39Z"/>
        <path class="cls-3" d="m668.59,403.1c.47-.43,1.11-.68,1.79-.64.28.02.53.09.77.19-.14-.1-.3-.19-.46-.25-.37-.15-.75-.19-1.12-.16-.41.2-.75.5-.98.86Z"/>
        <path class="cls-3" d="m668.35,405.28c.58,1.55,1.19,3.07,1.84,4.59.64-1.42,1.26-2.85,1.85-4.29.44-1.08.04-2.29-.88-2.92-.24-.1-.5-.17-.77-.19-.68-.04-1.32.21-1.79.64-.4.63-.52,1.42-.24,2.17Z"/>
        <path class="cls-3" d="m684.57,466.24c.48.56,1.16.85,1.85.85.56,0,1.13-.19,1.59-.59,1.02-.88,1.14-2.42.26-3.44-7-8.14-12.74-17.23-17.07-27.04-.12,3.46-.23,6.92-.32,10.38,3.85,7.07,8.43,13.71,13.7,19.84Z"/>
        <path class="cls-3" d="m670.43,435.12c-.73,1.95-1.52,3.88-2.35,5.79.88,1.86,1.81,3.69,2.79,5.49.09-3.46.2-6.92.32-10.38-.21-.48-.42-.97-.63-1.46-.02.19-.06.38-.13.56Z"/>
        <path class="cls-3" d="m665.95,436.18c.11.26.22.51.33.77.04-1.12.08-2.24.12-3.36-.63.68-.84,1.69-.46,2.59Z"/>
        <path class="cls-3" d="m667.25,432.99c-.33.14-.61.35-.84.6-.04,1.12-.08,2.24-.12,3.36.57,1.33,1.17,2.65,1.79,3.95.83-1.9,1.62-3.83,2.35-5.79.07-.19.11-.37.13-.56-.04-.09-.08-.18-.12-.27-.52-1.24-1.95-1.82-3.19-1.3Z"/>
        <path class="cls-3" d="m684.07,495.69c.48.6,1.19.9,1.9.9.54,0,1.08-.18,1.53-.54,1.05-.85,1.21-2.38.36-3.43-7.15-8.84-12.85-18.7-16.94-29.3-.09-.23-.22-.44-.37-.62-.05,3.89-.09,7.78-.11,11.66,3.73,7.58,8.29,14.73,13.62,21.32Z"/>
        <path class="cls-3" d="m667.77,461.93c-.61.23-1.06.69-1.32,1.23.58-.29,1.28-.35,1.94-.11,1.26.47,1.9,1.88,1.43,3.14-.46,1.24-.95,2.47-1.46,3.69.66,1.51,1.36,3.01,2.09,4.49.02-3.89.05-7.78.11-11.66-.64-.82-1.76-1.16-2.78-.77Z"/>
        <path class="cls-3" d="m666.37,465.09c.62,1.62,1.29,3.22,1.98,4.8.51-1.22,1-2.45,1.46-3.69.47-1.26-.17-2.66-1.43-3.14-.66-.25-1.35-.18-1.94.11-.28.58-.33,1.27-.08,1.92Z"/>
        <path class="cls-3" d="m670.56,497.88c.04,2.76.1,5.53.15,8.29,4.12,7.47,9.05,14.46,14.75,20.85.48.54,1.15.82,1.82.82.58,0,1.16-.2,1.62-.62,1-.9,1.09-2.44.2-3.44-7.56-8.48-13.73-18.05-18.33-28.45-.07-.15-.15-.3-.24-.43,0,.81.01,1.61.02,2.42.02.18.03.37,0,.55Z"/>
        <path class="cls-3" d="m667.56,494.09c-.9.4-1.43,1.27-1.44,2.2.61-.93,1.8-1.35,2.89-.95.88.33,1.45,1.11,1.55,1.99-.01-.81-.02-1.61-.02-2.42-.66-.93-1.89-1.29-2.97-.81Z"/>
        <path class="cls-3" d="m670.43,498.48c-.51,1.37-1.05,2.73-1.62,4.08.61,1.22,1.25,2.42,1.91,3.61-.06-2.76-.11-5.53-.15-8.29-.02.2-.06.4-.13.6Z"/>
        <path class="cls-3" d="m670.55,497.33c0,.18,0,.37,0,.55.02-.19.02-.37,0-.55Z"/>
        <path class="cls-3" d="m666.31,497.31c.79,1.78,1.62,3.53,2.49,5.25.56-1.35,1.1-2.71,1.62-4.08.07-.2.11-.4.13-.6,0-.18,0-.37,0-.55-.11-.87-.67-1.66-1.55-1.99-1.09-.41-2.28.01-2.89.95,0,.34.06.69.2,1.02Z"/>
        <path class="cls-3" d="m684.51,556.68c.48.61,1.19.92,1.91.92.53,0,1.06-.17,1.51-.53,1.05-.84,1.23-2.37.4-3.42-7.05-8.91-12.65-18.83-16.64-29.47-.11-.3-.28-.57-.49-.79.15,4.37.33,8.74.53,13.11,3.54,7.14,7.81,13.9,12.78,20.18Z"/>
        <path class="cls-3" d="m668.55,522.75c-.63.23-1.1.7-1.36,1.26.55-.23,1.19-.27,1.8-.04,1.26.47,1.9,1.88,1.43,3.14-.44,1.19-.91,2.36-1.39,3.53.84,1.98,1.74,3.93,2.69,5.86-.2-4.37-.37-8.74-.53-13.11-.65-.71-1.69-.99-2.65-.64Z"/>
        <path class="cls-3" d="m667.13,525.89c.6,1.6,1.24,3.18,1.91,4.75.48-1.17.95-2.34,1.39-3.53.47-1.26-.17-2.66-1.43-3.14-.61-.23-1.25-.19-1.8.04-.26.57-.31,1.24-.07,1.88Z"/>
      </g>
      <g>
        <path class="cls-3" d="m236.63,399.69c-.28,5.51-.52,11.02-.73,16.54.65-.64,1.64-.88,2.55-.54,1.07.4,1.69,1.48,1.56,2.57.21.49.42.97.63,1.46.25-7.27.58-14.53.96-21.79-.68-1.44-1.34-2.9-1.97-4.37-.94,2.07-1.94,4.11-3.01,6.12Z"/>
        <path class="cls-3" d="m235.01,459.81c-.02,7.05.02,14.1.12,21.15.06-.16.12-.32.18-.48.07-.17.15-.33.25-.48.01-.92.55-1.8,1.44-2.2,1.08-.48,2.31-.11,2.97.81-.08-6.85-.11-13.69-.08-20.54-.73-1.48-1.42-2.97-2.09-4.49-.87,2.1-1.8,4.18-2.8,6.22Z"/>
        <path class="cls-3" d="m236.26,519.38c.51,11.5,1.18,22.98,2.01,34.42.09,1.28,1.16,2.26,2.43,2.26.06,0,.12,0,.18,0,1.34-.1,2.35-1.26,2.25-2.61-.8-11.05-1.45-22.14-1.96-33.24-.95-1.93-1.85-3.88-2.69-5.86-.7,1.7-1.44,3.37-2.22,5.03Z"/>
        <path class="cls-3" d="m235.35,492.65c.12,5.22.28,10.43.47,15.64.23-.25.52-.44.83-.57.26-.56.73-1.03,1.36-1.26.96-.36,2-.07,2.65.64-.2-5.74-.37-11.48-.49-17.22-.66-1.19-1.29-2.4-1.91-3.61-.9,2.16-1.88,4.29-2.91,6.38Z"/>
        <path class="cls-3" d="m235.47,429.04c-.17,6.15-.29,12.3-.36,18.46.22-.27.49-.48.79-.63.26-.54.71-.99,1.32-1.23,1.02-.39,2.14-.05,2.78.77.07-5.44.17-10.87.32-16.3-.98-1.8-1.91-3.63-2.79-5.49-.65,1.49-1.33,2.97-2.05,4.43Z"/>
        <path class="cls-3" d="m219.83,419.89c.46.38,1.01.57,1.56.57.7,0,1.39-.3,1.87-.87,5.16-6.16,9.63-12.82,13.36-19.89.19-3.75.4-7.49.62-11.24.04-.66.34-1.24.79-1.65.24-.36.57-.66.98-.86-.89.07-1.7.62-2.06,1.5-4.27,10.53-10.14,20.29-17.43,29.01-.86,1.03-.73,2.57.3,3.43Z"/>
        <path class="cls-3" d="m237.79,388.98c-.28-.75-.16-1.55.24-2.17-.45.41-.75.99-.79,1.65-.23,3.74-.43,7.49-.62,11.24,1.06-2.01,2.06-4.05,3.01-6.12-.64-1.51-1.26-3.04-1.84-4.59Z"/>
        <path class="cls-3" d="m235.4,419.89c-.38-.91-.17-1.91.46-2.59.01-.35.03-.71.04-1.06-.25.24-.45.54-.58.88-3.99,10.64-9.58,20.56-16.64,29.47-.84,1.05-.66,2.59.4,3.42.45.35.98.53,1.51.53.72,0,1.43-.32,1.91-.92,5.06-6.39,9.41-13.28,12.98-20.57.08-2.8.16-5.59.26-8.38-.11-.26-.23-.51-.33-.77Z"/>
        <path class="cls-3" d="m236.7,416.7c1.24-.52,2.67.06,3.19,1.3.04.09.08.18.12.27.13-1.09-.48-2.17-1.56-2.57-.91-.34-1.9-.09-2.55.54-.01.35-.03.71-.04,1.06.23-.25.51-.46.84-.6Z"/>
        <path class="cls-3" d="m235.73,420.66c-.1,2.79-.18,5.59-.26,8.38.72-1.46,1.4-2.94,2.05-4.43-.62-1.31-1.22-2.62-1.79-3.95Z"/>
        <path class="cls-3" d="m234.7,448.19c-3.99,10.64-9.58,20.56-16.64,29.47-.84,1.05-.66,2.59.4,3.42.45.35.98.53,1.51.53.72,0,1.43-.32,1.91-.92,5.13-6.48,9.52-13.48,13.13-20.88.01-4.1.05-8.2.1-12.3-.17.2-.31.43-.41.69Z"/>
        <path class="cls-3" d="m235.82,448.79c-.25-.65-.2-1.34.08-1.92-.3.15-.57.37-.79.63-.05,4.1-.09,8.2-.1,12.3.99-2.04,1.93-4.12,2.8-6.22-.7-1.58-1.36-3.18-1.98-4.8Z"/>
        <path class="cls-3" d="m218.67,509.95c-.84,1.05-.66,2.59.4,3.42.45.35.98.53,1.51.53.72,0,1.43-.32,1.91-.92,5-6.32,9.3-13.12,12.85-20.32-.09-3.9-.16-7.8-.22-11.7-3.97,10.46-9.5,20.22-16.45,28.99Z"/>
        <path class="cls-3" d="m235.76,481.01c-.15-.33-.21-.68-.2-1.02-.1.15-.18.31-.25.48-.06.16-.12.32-.18.48.05,3.9.13,7.8.22,11.7,1.03-2.1,2.01-4.22,2.91-6.38-.87-1.73-1.71-3.48-2.49-5.25Z"/>
        <path class="cls-3" d="m235.31,509.11c-3.99,10.64-9.58,20.56-16.64,29.47-.84,1.05-.66,2.59.4,3.42.45.35.98.53,1.51.53.72,0,1.43-.32,1.91-.92,5.44-6.87,10.05-14.32,13.77-22.22-.17-3.69-.31-7.39-.45-11.08-.21.23-.39.5-.51.81Z"/>
        <path class="cls-3" d="m236.58,509.6c-.24-.63-.19-1.31.07-1.88-.31.13-.6.32-.83.57.13,3.7.28,7.39.45,11.08.78-1.66,1.52-3.34,2.22-5.03-.67-1.57-1.31-3.15-1.91-4.75Z"/>
        <path class="cls-3" d="m240.13,386.11c.17.07.32.16.46.25.94.38,1.58,1.32,1.51,2.39-.18,3.06-.35,6.12-.51,9.19,3.68,7.76,8.23,15.07,13.58,21.83.48.61,1.19.92,1.91.92.53,0,1.06-.17,1.51-.53,1.05-.84,1.23-2.37.4-3.42-7.05-8.91-12.65-18.83-16.64-29.47-.47-1.26-1.88-1.9-3.14-1.43-.07.03-.14.07-.2.1.37-.03.75.01,1.11.16Z"/>
        <path class="cls-3" d="m240.6,386.36c.92.63,1.31,1.84.88,2.92-.59,1.44-1.2,2.87-1.85,4.29.62,1.47,1.28,2.93,1.97,4.37.16-3.06.33-6.13.51-9.19.06-1.07-.57-2.01-1.51-2.39Z"/>
        <path class="cls-3" d="m238.04,386.81c.47-.43,1.11-.68,1.79-.64.28.02.53.09.77.19-.14-.1-.3-.19-.46-.25-.37-.15-.75-.19-1.11-.16-.41.2-.75.5-.98.86Z"/>
        <path class="cls-3" d="m237.79,388.98c.58,1.55,1.19,3.07,1.84,4.59.64-1.42,1.26-2.85,1.85-4.29.44-1.08.04-2.29-.88-2.92-.24-.1-.5-.17-.77-.19-.68-.04-1.32.21-1.79.64-.4.63-.52,1.42-.24,2.17Z"/>
        <path class="cls-3" d="m254.02,449.95c.48.56,1.16.85,1.85.85.56,0,1.13-.19,1.59-.59,1.02-.88,1.14-2.42.26-3.44-7-8.14-12.74-17.23-17.07-27.04-.12,3.46-.23,6.92-.32,10.38,3.85,7.07,8.43,13.71,13.7,19.84Z"/>
        <path class="cls-3" d="m239.88,418.83c-.73,1.95-1.52,3.88-2.35,5.79.88,1.86,1.81,3.69,2.79,5.49.09-3.46.2-6.92.32-10.38-.21-.48-.42-.97-.63-1.46-.02.19-.06.38-.13.56Z"/>
        <path class="cls-3" d="m235.4,419.89c.11.26.22.51.33.77.04-1.12.08-2.24.12-3.37-.63.68-.84,1.69-.46,2.59Z"/>
        <path class="cls-3" d="m236.7,416.7c-.33.14-.61.35-.84.6-.04,1.12-.08,2.24-.12,3.37.57,1.33,1.17,2.65,1.79,3.95.83-1.9,1.62-3.83,2.35-5.79.07-.19.11-.37.13-.56-.04-.09-.08-.18-.12-.27-.52-1.24-1.95-1.82-3.19-1.3Z"/>
        <path class="cls-3" d="m253.52,479.4c.48.6,1.19.9,1.9.9.54,0,1.08-.18,1.53-.54,1.05-.85,1.21-2.38.36-3.43-7.15-8.84-12.85-18.7-16.94-29.3-.09-.23-.22-.44-.37-.63-.05,3.89-.09,7.78-.11,11.66,3.73,7.58,8.29,14.73,13.62,21.32Z"/>
        <path class="cls-3" d="m237.22,445.64c-.61.23-1.06.69-1.32,1.23.58-.29,1.28-.35,1.94-.11,1.26.47,1.9,1.88,1.43,3.14-.46,1.24-.95,2.47-1.46,3.69.66,1.51,1.36,3.01,2.09,4.49.02-3.89.05-7.78.11-11.66-.64-.82-1.76-1.16-2.78-.77Z"/>
        <path class="cls-3" d="m235.82,448.79c.62,1.62,1.29,3.22,1.98,4.8.51-1.22,1-2.45,1.46-3.69.47-1.26-.17-2.66-1.43-3.14-.66-.25-1.35-.18-1.94.11-.28.58-.33,1.27-.08,1.92Z"/>
        <path class="cls-3" d="m240.01,481.58c.04,2.76.1,5.53.15,8.29,4.12,7.47,9.05,14.46,14.75,20.85.48.54,1.15.82,1.82.82.58,0,1.16-.2,1.62-.62,1-.9,1.09-2.44.2-3.44-7.56-8.48-13.73-18.05-18.33-28.45-.07-.15-.15-.3-.24-.43,0,.81.01,1.61.02,2.42.02.18.03.37,0,.55Z"/>
        <path class="cls-3" d="m237.01,477.8c-.9.4-1.43,1.27-1.44,2.2.61-.93,1.8-1.35,2.89-.95.88.33,1.45,1.11,1.55,1.99-.01-.81-.02-1.61-.02-2.42-.66-.93-1.89-1.29-2.97-.81Z"/>
        <path class="cls-3" d="m239.88,482.18c-.51,1.37-1.05,2.73-1.62,4.08.61,1.22,1.25,2.42,1.91,3.61-.06-2.76-.11-5.53-.15-8.29-.02.2-.06.4-.13.6Z"/>
        <path class="cls-3" d="m240,481.03c0,.18,0,.37,0,.55.02-.19.02-.37,0-.55Z"/>
        <path class="cls-3" d="m235.76,481.01c.79,1.78,1.62,3.53,2.49,5.25.56-1.35,1.1-2.71,1.62-4.08.07-.2.11-.4.13-.6,0-.18,0-.37,0-.55-.11-.87-.67-1.66-1.55-1.99-1.09-.41-2.28.01-2.89.95,0,.34.06.69.2,1.02Z"/>
        <path class="cls-3" d="m253.96,540.39c.48.61,1.19.92,1.91.92.53,0,1.06-.17,1.51-.53,1.05-.84,1.23-2.37.4-3.42-7.05-8.91-12.65-18.83-16.64-29.47-.11-.3-.28-.57-.49-.79.15,4.37.33,8.74.53,13.11,3.54,7.14,7.81,13.9,12.78,20.18Z"/>
        <path class="cls-3" d="m238,506.46c-.63.23-1.1.7-1.36,1.26.55-.23,1.19-.27,1.8-.04,1.26.47,1.9,1.88,1.43,3.14-.44,1.19-.91,2.36-1.39,3.53.84,1.98,1.74,3.93,2.69,5.86-.2-4.37-.37-8.74-.53-13.11-.65-.71-1.69-.99-2.65-.64Z"/>
        <path class="cls-3" d="m236.58,509.6c.6,1.6,1.24,3.18,1.91,4.75.48-1.17.95-2.34,1.39-3.53.47-1.26-.17-2.66-1.43-3.14-.61-.23-1.25-.19-1.8.04-.26.57-.31,1.24-.07,1.88Z"/>
      </g>
      <path class="cls-4" d="m421.01,100.66c1.01-.48,2.02-.96,3.03-1.44,1.1-.52,2.21-.94,3.11-1.83,1.06-1.06.28-3.38-1.24-3.24-2,.18-3.97,1.5-5.8,2.36-1.78.84-3.57,1.68-5.36,2.52-3.63,1.7-7.27,3.39-10.91,5.07-1.14.53-2.28,1.05-3.42,1.57,1.79-4.57,3.58-9.14,5.06-13.83.62-1.95,1.18-3.92,1.69-5.91.48-1.91,1-4.02.94-6.01-.03-.86-1.23-1.36-1.62-.47-.7,1.6-1.09,3.38-1.58,5.06-.5,1.74-1.02,3.47-1.6,5.18-1.16,3.42-2.44,6.8-3.77,10.15-.37.94-.74,1.87-1.11,2.8-1.83-4.4-3.59-8.83-5.57-13.15-.87-1.91-1.82-3.79-2.88-5.59-.96-1.63-2-3.45-3.45-4.62-.35-.28-.73.18-.66.55.31,1.74,1.18,3.44,1.86,5.04.7,1.65,1.41,3.3,2.09,4.96,1.38,3.39,2.75,6.78,4.12,10.18.53,1.33,1.07,2.65,1.62,3.97-3.47-1.86-6.96-3.67-10.55-5.23-1.76-.76-3.54-1.5-5.35-2.11-.94-.31-1.88-.64-2.82-.96-.44-.15-.87-.3-1.3-.46-.53-.2-.97-.14-1.51-.25-.43-.09-.97.43-.65.91.23.34.38.78.63,1.09.24.29.63.52.92.74.76.58,1.57,1.06,2.41,1.48,1.68.83,3.41,1.52,5.11,2.3,3.41,1.56,6.76,3.3,10.08,5.08.92.49,1.83.98,2.74,1.48-4.42,2.04-8.85,4.08-13.26,6.16-2.07.97-4.13,1.94-6.18,2.97-1.87.94-3.77,1.86-5.33,3.34-.55.53-.12,1.65.61,1.6,1.83-.12,3.56-.75,5.28-1.41,1.81-.7,3.61-1.43,5.4-2.19,3.68-1.57,7.34-3.18,10.99-4.82.56-.25,1.11-.5,1.67-.75-.87,2.41-1.7,4.84-2.43,7.3-1.14,3.85-2.33,8-2.52,12.06-.08,1.72,2.41,2.08,2.77.41.38-1.76.61-3.57.99-5.33.38-1.76.82-3.51,1.31-5.24.97-3.42,2.14-6.77,3.38-10.09.1-.28.21-.55.31-.83.11-.05.21-.1.32-.15,1.44,3.22,2.95,6.4,4.55,9.53,1.96,3.8,4.03,7.53,6.21,11.19,1.16,1.94,4.04.13,2.87-1.81-3.53-5.84-6.77-11.87-9.72-18.08,3.42,1.76,6.89,3.4,10.46,4.77,1.96.75,3.94,1.43,5.89,2.22,1,.41,1.98.87,2.94,1.37,1.08.55,2.08.87,3.04-.14.6-.63.72-1.99,0-2.6-.36-.31-.82-.52-1.27-.53,0-.05-.11-.1-.33-.17-.13-.11-.34-.18-.5-.25-.42-.21-.83-.4-1.26-.59-.84-.38-1.7-.74-2.56-1.08-1.67-.65-3.36-1.24-5.03-1.88-3.32-1.28-6.54-2.8-9.72-4.43-.02-.01-.05-.02-.07-.04,3.55-1.63,7.1-3.27,10.63-4.93,2.08-.98,4.16-1.96,6.25-2.94Z"/>
      <path class="cls-4" d="m227.46,138.68c1.01-.48,2.02-.96,3.03-1.44,1.1-.52,2.21-.94,3.11-1.83,1.06-1.06.28-3.38-1.24-3.24-2,.18-3.97,1.5-5.8,2.36-1.78.84-3.57,1.68-5.36,2.52-3.63,1.7-7.27,3.39-10.91,5.07-1.14.53-2.28,1.05-3.42,1.57,1.79-4.57,3.58-9.14,5.06-13.83.62-1.95,1.18-3.92,1.69-5.91.48-1.91,1-4.02.94-6.01-.03-.86-1.23-1.36-1.62-.47-.7,1.6-1.09,3.38-1.58,5.06-.5,1.74-1.02,3.47-1.6,5.18-1.16,3.42-2.44,6.8-3.77,10.15-.37.94-.74,1.87-1.11,2.8-1.83-4.4-3.59-8.83-5.57-13.15-.87-1.91-1.82-3.79-2.88-5.59-.96-1.63-2-3.45-3.45-4.62-.35-.28-.73.18-.66.55.31,1.74,1.18,3.44,1.86,5.04.7,1.65,1.41,3.3,2.09,4.96,1.38,3.39,2.75,6.78,4.12,10.18.53,1.33,1.07,2.65,1.62,3.97-3.47-1.86-6.96-3.67-10.55-5.23-1.76-.77-3.54-1.5-5.35-2.11-.94-.31-1.88-.64-2.82-.96-.44-.15-.87-.3-1.3-.46-.53-.2-.97-.14-1.51-.25-.43-.09-.97.43-.65.91.23.34.38.78.63,1.09.24.29.63.52.92.74.76.58,1.57,1.06,2.41,1.48,1.68.83,3.41,1.52,5.11,2.3,3.41,1.56,6.76,3.3,10.08,5.08.92.49,1.83.98,2.74,1.48-4.42,2.04-8.85,4.08-13.26,6.16-2.07.97-4.13,1.94-6.18,2.97-1.87.94-3.77,1.86-5.33,3.34-.55.53-.12,1.65.61,1.6,1.83-.12,3.56-.75,5.28-1.41,1.81-.7,3.61-1.43,5.4-2.19,3.68-1.57,7.34-3.18,10.99-4.82.56-.25,1.11-.5,1.67-.75-.87,2.41-1.7,4.84-2.43,7.3-1.14,3.85-2.33,8-2.52,12.06-.08,1.72,2.41,2.08,2.77.41.39-1.76.61-3.57.99-5.33.38-1.76.82-3.51,1.31-5.24.97-3.42,2.14-6.77,3.38-10.09.1-.28.21-.55.31-.83.11-.05.21-.1.32-.15,1.44,3.22,2.95,6.4,4.55,9.53,1.95,3.8,4.03,7.53,6.21,11.19,1.16,1.94,4.04.13,2.87-1.81-3.53-5.84-6.77-11.87-9.72-18.08,3.42,1.76,6.89,3.4,10.46,4.77,1.96.75,3.94,1.43,5.89,2.22,1,.41,1.98.87,2.94,1.37,1.08.55,2.08.87,3.04-.14.6-.63.72-1.99,0-2.6-.36-.31-.82-.52-1.27-.53,0-.05-.11-.1-.33-.17-.13-.11-.34-.18-.5-.25-.42-.21-.83-.4-1.26-.59-.84-.38-1.7-.74-2.56-1.08-1.67-.65-3.36-1.24-5.03-1.88-3.32-1.28-6.54-2.8-9.72-4.43-.02-.01-.05-.02-.07-.04,3.55-1.63,7.1-3.27,10.63-4.93,2.08-.98,4.16-1.96,6.25-2.94Z"/>
      <path class="cls-4" d="m309.31,275.31c1.37-.65,2.74-1.3,4.12-1.95,1.5-.71,3-1.27,4.22-2.49,1.45-1.44.38-4.58-1.68-4.4-2.72.25-5.39,2.03-7.87,3.2-2.42,1.14-4.85,2.28-7.27,3.42-4.93,2.31-9.87,4.61-14.81,6.89-1.55.71-3.09,1.43-4.64,2.14,2.43-6.2,4.86-12.41,6.87-18.78.84-2.65,1.61-5.32,2.29-8.03.65-2.59,1.36-5.46,1.28-8.17-.03-1.17-1.67-1.85-2.2-.64-.95,2.17-1.48,4.58-2.14,6.87-.68,2.36-1.38,4.71-2.17,7.04-1.57,4.65-3.32,9.23-5.11,13.78-.5,1.27-1.01,2.54-1.51,3.81-2.49-5.97-4.88-11.98-7.56-17.86-1.18-2.59-2.48-5.15-3.91-7.59-1.3-2.22-2.71-4.69-4.69-6.27-.47-.38-.99.24-.9.75.43,2.36,1.6,4.67,2.53,6.84.95,2.24,1.92,4.48,2.84,6.74,1.87,4.6,3.74,9.21,5.59,13.82.72,1.8,1.46,3.6,2.2,5.39-4.71-2.52-9.44-4.98-14.32-7.1-2.39-1.04-4.81-2.04-7.27-2.86-1.28-.43-2.55-.88-3.82-1.31-.59-.2-1.18-.4-1.77-.62-.72-.27-1.31-.19-2.05-.34-.59-.12-1.32.58-.88,1.23.31.46.51,1.06.86,1.47.33.39.86.71,1.25,1.01,1.03.79,2.13,1.44,3.27,2.01,2.28,1.13,4.63,2.06,6.94,3.12,4.63,2.12,9.18,4.48,13.68,6.89,1.24.66,2.48,1.33,3.73,2.01-6.01,2.77-12.01,5.54-18,8.36-2.81,1.32-5.61,2.64-8.39,4.04-2.54,1.28-5.12,2.52-7.24,4.53-.75.72-.17,2.24.83,2.17,2.49-.16,4.83-1.02,7.17-1.92,2.46-.95,4.9-1.94,7.33-2.97,4.99-2.13,9.96-4.32,14.92-6.55.76-.34,1.51-.68,2.26-1.02-1.19,3.27-2.3,6.57-3.29,9.92-1.55,5.22-3.16,10.87-3.42,16.37-.11,2.33,3.27,2.82,3.77.55.52-2.39.82-4.84,1.34-7.24.51-2.4,1.11-4.77,1.78-7.12,1.32-4.64,2.9-9.2,4.59-13.7.14-.37.28-.75.42-1.12.15-.07.29-.13.43-.2,1.95,4.37,4,8.69,6.18,12.94,2.65,5.17,5.47,10.23,8.43,15.2,1.57,2.63,5.49.17,3.9-2.46-4.79-7.93-9.2-16.12-13.19-24.55,4.64,2.38,9.35,4.62,14.2,6.48,2.66,1.02,5.36,1.94,8,3.02,1.36.56,2.68,1.18,4,1.86,1.47.75,2.82,1.18,4.12-.2.82-.86.97-2.7,0-3.53-.49-.42-1.11-.7-1.72-.72,0-.06-.15-.14-.44-.23-.18-.15-.47-.24-.68-.34-.56-.28-1.13-.54-1.71-.8-1.15-.52-2.31-1.01-3.47-1.47-2.26-.89-4.56-1.69-6.83-2.56-4.5-1.73-8.88-3.81-13.2-6.01-.03-.02-.06-.03-.09-.05,4.82-2.21,9.64-4.44,14.44-6.69,2.83-1.33,5.66-2.66,8.48-3.99Z"/>
      <path class="cls-4" d="m601.61,351.34c1.37-.65,2.74-1.3,4.12-1.95,1.5-.71,3-1.27,4.22-2.49,1.45-1.44.38-4.58-1.68-4.4-2.72.25-5.39,2.03-7.87,3.2-2.42,1.14-4.85,2.28-7.27,3.42-4.93,2.31-9.87,4.61-14.81,6.89-1.55.71-3.09,1.43-4.64,2.14,2.43-6.2,4.86-12.41,6.87-18.78.84-2.65,1.61-5.32,2.29-8.03.65-2.59,1.36-5.46,1.28-8.17-.03-1.17-1.67-1.85-2.2-.64-.95,2.17-1.48,4.58-2.14,6.87-.68,2.36-1.38,4.71-2.17,7.04-1.57,4.65-3.32,9.23-5.11,13.78-.5,1.27-1.01,2.54-1.51,3.81-2.49-5.97-4.88-11.99-7.56-17.86-1.18-2.59-2.48-5.15-3.91-7.59-1.3-2.22-2.71-4.69-4.69-6.27-.47-.38-.99.24-.9.75.43,2.36,1.6,4.67,2.53,6.84.95,2.24,1.92,4.48,2.84,6.74,1.87,4.6,3.74,9.21,5.59,13.82.72,1.8,1.46,3.6,2.2,5.39-4.71-2.52-9.44-4.98-14.32-7.1-2.39-1.04-4.81-2.04-7.27-2.86-1.28-.43-2.55-.88-3.82-1.31-.59-.2-1.18-.4-1.77-.62-.72-.27-1.31-.19-2.05-.34-.59-.12-1.32.58-.88,1.23.31.46.51,1.06.86,1.47.33.39.86.71,1.25,1.01,1.03.79,2.13,1.44,3.27,2.01,2.28,1.13,4.63,2.06,6.94,3.12,4.63,2.12,9.18,4.48,13.68,6.89,1.24.66,2.48,1.34,3.73,2.01-6.01,2.77-12.01,5.54-18,8.36-2.81,1.32-5.61,2.64-8.39,4.04-2.54,1.28-5.12,2.52-7.24,4.53-.75.72-.17,2.24.83,2.17,2.49-.16,4.83-1.02,7.17-1.92,2.46-.95,4.9-1.94,7.33-2.97,4.99-2.13,9.96-4.32,14.92-6.55.76-.34,1.51-.68,2.26-1.02-1.19,3.27-2.3,6.57-3.29,9.92-1.55,5.22-3.16,10.87-3.42,16.37-.11,2.33,3.27,2.82,3.77.55.52-2.39.82-4.84,1.34-7.24.51-2.4,1.11-4.77,1.78-7.12,1.32-4.64,2.9-9.2,4.59-13.7.14-.37.28-.75.42-1.12.14-.07.29-.13.43-.2,1.95,4.37,4,8.69,6.18,12.94,2.65,5.17,5.47,10.23,8.43,15.2,1.57,2.63,5.49.17,3.9-2.46-4.79-7.93-9.2-16.12-13.19-24.55,4.64,2.38,9.35,4.62,14.2,6.48,2.66,1.02,5.36,1.94,8,3.02,1.36.56,2.68,1.18,4,1.86,1.47.75,2.82,1.18,4.12-.2.82-.86.97-2.7,0-3.53-.49-.42-1.11-.7-1.72-.72,0-.06-.15-.14-.44-.23-.18-.15-.47-.24-.68-.34-.56-.28-1.13-.54-1.71-.8-1.15-.52-2.31-1.01-3.47-1.47-2.27-.89-4.56-1.69-6.83-2.56-4.5-1.73-8.88-3.81-13.2-6.01-.03-.02-.06-.03-.09-.05,4.82-2.21,9.64-4.44,14.44-6.69,2.83-1.33,5.66-2.66,8.48-3.99Z"/>
      <path class="cls-4" d="m116.29,355.61c.91-.43,1.82-.86,2.73-1.29.99-.47,1.99-.84,2.8-1.65.96-.96.26-3.04-1.12-2.92-1.8.16-3.58,1.35-5.22,2.12-1.61.76-3.22,1.51-4.83,2.27-3.27,1.53-6.55,3.06-9.83,4.57-1.03.47-2.05.95-3.08,1.42,1.61-4.12,3.23-8.23,4.56-12.46.55-1.76,1.07-3.53,1.52-5.33.43-1.72.9-3.63.85-5.42-.02-.78-1.11-1.23-1.46-.43-.63,1.44-.98,3.04-1.42,4.56-.45,1.57-.92,3.13-1.44,4.67-1.04,3.09-2.2,6.13-3.39,9.15-.33.84-.67,1.68-1,2.53-1.65-3.96-3.24-7.95-5.02-11.85-.78-1.72-1.64-3.42-2.59-5.04-.86-1.47-1.8-3.11-3.11-4.16-.31-.25-.66.16-.6.5.28,1.57,1.06,3.1,1.68,4.54.63,1.49,1.27,2.97,1.88,4.47,1.24,3.05,2.48,6.11,3.71,9.17.48,1.2.97,2.39,1.46,3.57-3.13-1.67-6.27-3.31-9.5-4.71-1.59-.69-3.19-1.35-4.82-1.9-.85-.28-1.69-.58-2.54-.87-.39-.13-.79-.27-1.18-.41-.48-.18-.87-.13-1.36-.22-.39-.08-.88.39-.58.82.21.31.34.7.57.98.22.26.57.47.83.67.68.52,1.41.95,2.17,1.33,1.51.75,3.07,1.37,4.6,2.07,3.07,1.4,6.09,2.97,9.08,4.57.82.44,1.65.89,2.47,1.33-3.99,1.84-7.97,3.68-11.95,5.55-1.86.88-3.72,1.75-5.57,2.68-1.68.85-3.4,1.67-4.8,3.01-.5.47-.11,1.49.55,1.44,1.65-.1,3.21-.68,4.76-1.27,1.63-.63,3.25-1.29,4.87-1.97,3.31-1.41,6.61-2.87,9.9-4.35.5-.23,1-.45,1.5-.68-.79,2.17-1.53,4.36-2.19,6.58-1.03,3.47-2.1,7.21-2.27,10.87-.07,1.55,2.17,1.87,2.5.37.35-1.59.55-3.21.89-4.81.34-1.59.74-3.16,1.18-4.72.88-3.08,1.93-6.1,3.05-9.09.09-.25.19-.5.28-.75.1-.04.19-.09.29-.13,1.3,2.9,2.65,5.77,4.1,8.59,1.76,3.43,3.63,6.79,5.6,10.09,1.04,1.75,3.64.12,2.59-1.63-3.18-5.26-6.11-10.7-8.76-16.29,3.08,1.58,6.2,3.06,9.43,4.3,1.77.68,3.55,1.29,5.31,2,.9.37,1.78.78,2.65,1.23.97.5,1.87.78,2.74-.13.54-.57.65-1.79,0-2.34-.33-.28-.74-.47-1.14-.48,0-.04-.1-.09-.29-.16-.12-.1-.31-.16-.45-.23-.37-.19-.75-.36-1.13-.53-.76-.35-1.53-.67-2.31-.97-1.5-.59-3.03-1.12-4.53-1.7-2.99-1.15-5.89-2.53-8.76-3.99-.02-.01-.04-.02-.06-.03,3.2-1.47,6.39-2.95,9.58-4.44,1.88-.88,3.75-1.76,5.63-2.65Z"/>
      <path class="cls-4" d="m762.11,259.33c.91-.43,1.82-.86,2.73-1.29.99-.47,1.99-.84,2.8-1.65.96-.96.26-3.04-1.12-2.92-1.8.16-3.58,1.35-5.22,2.12-1.61.76-3.22,1.51-4.83,2.27-3.27,1.53-6.55,3.06-9.83,4.57-1.03.47-2.05.95-3.08,1.42,1.61-4.12,3.23-8.23,4.56-12.46.55-1.76,1.07-3.53,1.52-5.33.43-1.72.9-3.63.85-5.42-.02-.78-1.11-1.23-1.46-.43-.63,1.44-.98,3.04-1.42,4.56-.45,1.57-.92,3.13-1.44,4.67-1.04,3.09-2.2,6.13-3.39,9.15-.33.84-.67,1.68-1,2.53-1.65-3.96-3.24-7.95-5.02-11.85-.78-1.72-1.64-3.42-2.59-5.04-.86-1.47-1.8-3.11-3.11-4.16-.31-.25-.66.16-.6.5.28,1.57,1.06,3.1,1.68,4.54.63,1.49,1.27,2.97,1.88,4.47,1.24,3.05,2.48,6.11,3.71,9.17.48,1.2.97,2.39,1.46,3.57-3.13-1.67-6.27-3.31-9.5-4.71-1.59-.69-3.19-1.35-4.82-1.9-.85-.28-1.69-.58-2.54-.87-.39-.13-.79-.27-1.18-.41-.48-.18-.87-.13-1.36-.22-.39-.08-.88.39-.58.82.21.31.34.7.57.98.22.26.57.47.83.67.68.52,1.41.95,2.17,1.33,1.51.75,3.07,1.37,4.6,2.07,3.07,1.4,6.09,2.97,9.08,4.57.82.44,1.65.89,2.47,1.33-3.99,1.84-7.97,3.68-11.95,5.55-1.86.88-3.72,1.75-5.57,2.68-1.68.85-3.4,1.67-4.8,3.01-.5.47-.11,1.49.55,1.44,1.65-.1,3.21-.68,4.76-1.27,1.63-.63,3.25-1.29,4.87-1.97,3.31-1.41,6.61-2.87,9.9-4.35.5-.22,1-.45,1.5-.68-.79,2.17-1.53,4.36-2.19,6.58-1.03,3.47-2.1,7.21-2.27,10.87-.07,1.55,2.17,1.87,2.5.37.35-1.59.55-3.21.89-4.81.34-1.59.74-3.16,1.18-4.72.88-3.08,1.93-6.1,3.05-9.09.09-.25.19-.5.28-.75.1-.04.19-.09.29-.13,1.3,2.9,2.65,5.77,4.1,8.59,1.76,3.43,3.63,6.79,5.6,10.09,1.04,1.75,3.64.12,2.59-1.63-3.18-5.26-6.1-10.7-8.76-16.29,3.08,1.58,6.2,3.06,9.43,4.3,1.77.68,3.55,1.29,5.31,2,.9.37,1.78.78,2.65,1.23.97.5,1.87.78,2.74-.13.54-.57.65-1.79,0-2.34-.33-.28-.74-.47-1.14-.48,0-.04-.1-.09-.29-.16-.12-.1-.31-.16-.45-.23-.37-.19-.75-.36-1.13-.53-.76-.35-1.53-.67-2.31-.97-1.5-.59-3.03-1.12-4.53-1.7-2.99-1.15-5.89-2.53-8.76-3.99-.02-.01-.04-.02-.06-.03,3.2-1.47,6.39-2.95,9.58-4.44,1.88-.88,3.75-1.76,5.63-2.65Z"/>
      <path class="cls-4" d="m526.97,98.35c.53-.25,1.07-.51,1.6-.76.58-.28,1.17-.5,1.64-.97.56-.56.15-1.79-.66-1.71-1.06.1-2.1.79-3.07,1.25-.94.45-1.89.89-2.83,1.33-1.92.9-3.85,1.79-5.77,2.68-.6.28-1.2.56-1.81.83.95-2.42,1.89-4.83,2.68-7.32.33-1.03.63-2.07.89-3.13.25-1.01.53-2.13.5-3.18-.01-.46-.65-.72-.86-.25-.37.85-.58,1.79-.83,2.68-.27.92-.54,1.84-.85,2.74-.61,1.81-1.29,3.6-1.99,5.37-.2.49-.39.99-.59,1.48-.97-2.33-1.9-4.67-2.95-6.96-.46-1.01-.96-2.01-1.52-2.96-.51-.86-1.06-1.83-1.83-2.44-.18-.15-.39.1-.35.29.17.92.62,1.82.98,2.67.37.87.75,1.75,1.11,2.63.73,1.79,1.46,3.59,2.18,5.38.28.7.57,1.4.86,2.1-1.84-.98-3.68-1.94-5.58-2.77-.93-.4-1.87-.79-2.83-1.12-.5-.17-.99-.34-1.49-.51-.23-.08-.46-.16-.69-.24-.28-.1-.51-.07-.8-.13-.23-.05-.51.23-.34.48.12.18.2.41.34.57.13.15.33.28.49.39.4.31.83.56,1.28.78.89.44,1.8.8,2.7,1.21,1.8.82,3.58,1.75,5.33,2.69.48.26.97.52,1.45.78-2.34,1.08-4.68,2.16-7.01,3.26-1.09.51-2.19,1.03-3.27,1.57-.99.5-2,.98-2.82,1.77-.29.28-.06.87.32.85.97-.06,1.88-.4,2.79-.75.96-.37,1.91-.75,2.86-1.16,1.95-.83,3.88-1.69,5.81-2.55.29-.13.59-.27.88-.4-.46,1.27-.9,2.56-1.28,3.86-.6,2.04-1.23,4.23-1.33,6.38-.04.91,1.27,1.1,1.47.21.2-.93.32-1.89.52-2.82.2-.93.43-1.86.69-2.77.51-1.81,1.13-3.58,1.79-5.34.05-.15.11-.29.17-.44.06-.03.11-.05.17-.08.76,1.7,1.56,3.39,2.41,5.04,1.03,2.01,2.13,3.99,3.29,5.92.61,1.03,2.14.07,1.52-.96-1.87-3.09-3.58-6.28-5.14-9.57,1.81.93,3.64,1.8,5.53,2.52,1.04.4,2.09.75,3.12,1.18.53.22,1.05.46,1.56.72.57.29,1.1.46,1.61-.08.32-.34.38-1.05,0-1.38-.19-.16-.43-.27-.67-.28,0-.02-.06-.05-.17-.09-.07-.06-.18-.09-.26-.13-.22-.11-.44-.21-.66-.31-.45-.2-.9-.39-1.35-.57-.88-.35-1.78-.66-2.66-1-1.76-.67-3.46-1.48-5.14-2.34-.01,0-.02-.01-.04-.02,1.88-.86,3.75-1.73,5.63-2.61,1.1-.52,2.2-1.04,3.3-1.56Z"/>
      <path class="cls-4" d="m754.93,482.1c3.83,3.48,10.93,4.35,15.49,2.25,4.86-2.23,7.62-7.66,7.14-13.35-.9-10.88-17.46-14.34-24-6.5-.53.63-.97,1.32-1.34,2.06-.75,1.53-1.12,3.22-1.21,4.91-.18,3.61.85,7.39,3.29,10.02.2.21.41.42.62.61Z"/>
      <path class="cls-4" d="m270.56,77.72c3.83,3.48,10.93,4.35,15.49,2.25,4.86-2.23,7.62-7.66,7.14-13.35-.9-10.88-17.46-14.34-24-6.5-.53.63-.97,1.32-1.34,2.06-.75,1.53-1.12,3.22-1.21,4.91-.18,3.61.85,7.39,3.29,10.02.2.21.41.42.62.61Z"/>
      <path class="cls-4" d="m193.53,357.68c3.83,3.48,10.93,4.35,15.49,2.25,4.86-2.23,7.62-7.66,7.14-13.35-.9-10.88-17.46-14.34-24-6.5-.53.63-.97,1.32-1.34,2.06-.75,1.53-1.12,3.22-1.21,4.91-.18,3.61.85,7.39,3.29,10.02.2.21.41.42.62.61Z"/>
      <path class="cls-4" d="m89.85,233.25c3.83,3.48,10.93,4.35,15.49,2.25,4.86-2.23,7.62-7.66,7.14-13.35-.9-10.88-17.46-14.34-24-6.5-.53.63-.97,1.32-1.34,2.06-.75,1.53-1.12,3.22-1.21,4.91-.18,3.61.85,7.39,3.29,10.02.2.21.41.42.62.61Z"/>
      <path class="cls-4" d="m346.1,199.19c3.83,3.48,10.93,4.35,15.49,2.25,4.86-2.23,7.62-7.66,7.14-13.35-.9-10.88-17.46-14.34-24-6.5-.53.63-.97,1.32-1.34,2.06-.75,1.53-1.12,3.22-1.21,4.91-.18,3.61.85,7.39,3.29,10.02.2.21.41.42.62.61Z"/>
      <path class="cls-4" d="m627.54,265.84c3.83,3.48,10.93,4.35,15.49,2.25,4.86-2.23,7.62-7.66,7.14-13.35-.9-10.88-17.46-14.34-24-6.5-.53.63-.97,1.32-1.34,2.06-.75,1.53-1.12,3.22-1.21,4.91-.18,3.61.85,7.39,3.29,10.02.2.21.41.42.62.61Z"/>
      <path class="cls-4" d="m704.57,385.82c3.83,3.48,10.93,4.35,15.49,2.25,4.86-2.23,7.62-7.66,7.14-13.35-.9-10.88-17.46-14.34-24-6.5-.53.63-.97,1.32-1.34,2.06-.75,1.53-1.12,3.22-1.21,4.91-.18,3.61.85,7.39,3.29,10.02.2.21.41.42.62.61Z"/>
      <path class="cls-4" d="m72.07,453.96c3.83,3.48,10.93,4.35,15.49,2.25,4.86-2.23,7.62-7.66,7.14-13.35-.9-10.88-17.46-14.34-24-6.5-.53.63-.97,1.32-1.34,2.06-.75,1.53-1.12,3.22-1.21,4.91-.18,3.61.85,7.39,3.29,10.02.2.21.41.42.62.61Z"/>
      <g>
        <path class="cls-3" d="m412.97,778.74c7.16,26.57,29.55,45.61,53.14,49.09s47.6-7.15,65.62-25.01c4.61-4.57,9.22-10.58,8.75-17.67-.62-9.25-9.29-14.74-12.78-23.1-11.18,19.78-25.87,39.19-45.79,43.92-12.4,2.94-25.45-.3-37.07-6.38-11.61-6.08-22.03-14.88-32.35-23.61l.48,2.77Z"/>
        <path class="cls-3" d="m417.86,775.11c-17.11,22.38-42.05,37.16-65.72,29.32-11.19-3.7-21.24-12.09-32.27-16.62-1.51,6-3.01,12-4.52,17.99-.37,1.48-.75,3.02-.56,4.57.22,1.88,1.23,3.43,2.25,4.78,7.41,9.8,17.94,14.76,28.32,15.37,10.38.61,20.64-2.82,30.21-7.91,18.35-9.74,35.03-26.17,44.86-48.8l-2.58,1.29Z"/>
        <path class="cls-3" d="m513.79,704.17c-1.19-5.48-5.32-9.66-9.9-11.5-4.58-1.83-9.56-1.64-14.33-.8-12.42,2.17-24.12,8.5-34.22,17.13-10.1,8.64-18.67,19.54-26.1,31.3-3.01,4.76-5.85,9.69-8.14,14.98-3.27,7.58-5.37,15.85-6.32,24.3l.36,1.52c5.93.29,11.66-2.11,17.19-4.53,27.28-11.94,54.97-26.1,74.42-51.38,4.48-5.82,8.69-13.38,7.03-21.03Zm-27.26,12.88c-.03.76-.14,1.54-.34,2.31-2.81,11.02-14.29,18.53-21.87,24.51-8.13,6.41-16.95,11.5-25.13,17.73-3.05,2.32-6.16,4.58-9.27,6.82-.66.47-4.52,4.02-5.32,3.61-1.84-.95,9.06-19.79,9.78-20.9,10.78-16.73,25.21-29.32,41-38.99,1.83-1.12,3.78-2.23,5.86-2.14,3.61.17,5.44,3.36,5.3,7.05Z"/>
        <path class="cls-3" d="m415,775.49c-3.27-12.26-11.61-21.73-18.71-30.52-6.08-7.53-12.47-15.34-19.39-21.94-3.2-3.06-6.52-5.86-9.97-8.24-7.64-5.29-17.07-8.89-25.61-6.72-7.09,1.8-11.49,10.73-9.84,19.96.95,5.32,3.4,10.06,6.26,14.14,8.52,12.14,20.4,18.83,31.88,24.73,13.02,6.69,26.67,10.89,40.17,15.3,4.77,1.56,6.9-.38,5.21-6.7Zm-10.34-4.47c-.51-.21-20.51-13.62-30.73-18.28-5.86-2.68-12.53-5.28-16.83-10.96-.9-1.19-1.69-2.57-1.9-4.13-.42-3.22,1.89-5.79,4.47-6.11,1.75-.22,3.5.34,5.16,1.05,3.9,1.67,7.51,4.19,10.98,6.89,5.1,3.96,9.95,8.33,14.78,12.74,5.02,4.58,21.12,21.69,18.09,20.89-.11-.03-3.92-2.04-4.02-2.08Z"/>
      </g>
    </g>
  </g>
</svg>