<?xml version="1.0" encoding="UTF-8"?>
<svg id="Layer_2" data-name="Layer 2" xmlns="http://www.w3.org/2000/svg" viewBox="0 0 77.9 74.42">
  <defs>
    <style>
      .cls-1 {
        fill: #fff8ec;
        stroke-width: 0px;
      }
    </style>
  </defs>
  <g id="Layer_1-2" data-name="Layer 1">
    <path class="cls-1" d="m68.9,29.45c1.37-.65,2.74-1.3,4.12-1.95,1.5-.71,3-1.27,4.22-2.49,1.45-1.44.38-4.58-1.68-4.4-2.72.25-5.39,2.03-7.87,3.2-2.42,1.14-4.85,2.28-7.27,3.42-4.93,2.31-9.87,4.61-14.81,6.89-1.55.71-3.09,1.43-4.64,2.14,2.43-6.2,4.86-12.41,6.87-18.78.84-2.65,1.61-5.32,2.29-8.03.65-2.59,1.36-5.46,1.28-8.17-.03-1.17-1.67-1.85-2.2-.64-.95,2.17-1.48,4.58-2.14,6.87-.68,2.36-1.38,4.71-2.17,7.04-1.57,4.65-3.32,9.23-5.11,13.78-.5,1.27-1.01,2.54-1.51,3.81-2.49-5.97-4.88-11.98-7.56-17.86-1.18-2.59-2.48-5.15-3.91-7.59-1.3-2.22-2.71-4.69-4.69-6.27-.47-.38-.99.24-.9.75.43,2.36,1.6,4.67,2.53,6.84.95,2.24,1.92,4.48,2.84,6.74,1.87,4.6,3.74,9.21,5.59,13.82.72,1.8,1.46,3.6,2.2,5.39-4.71-2.52-9.44-4.98-14.32-7.1-2.39-1.04-4.81-2.04-7.27-2.86-1.28-.43-2.55-.88-3.82-1.31-.59-.2-1.18-.4-1.77-.62-.72-.27-1.31-.19-2.05-.34-.59-.12-1.32.58-.88,1.23.31.46.51,1.06.86,1.47.33.39.86.71,1.25,1.01,1.03.79,2.13,1.44,3.27,2.01,2.28,1.13,4.63,2.06,6.94,3.12,4.63,2.12,9.18,4.48,13.68,6.89,1.24.66,2.48,1.34,3.73,2.01-6.01,2.77-12.01,5.54-18,8.36-2.81,1.32-5.61,2.64-8.39,4.04-2.54,1.28-5.12,2.52-7.24,4.53-.75.72-.17,2.24.83,2.17,2.49-.16,4.83-1.02,7.17-1.92,2.46-.95,4.9-1.94,7.33-2.97,4.99-2.13,9.96-4.32,14.92-6.55.76-.34,1.51-.68,2.26-1.02-1.19,3.27-2.3,6.57-3.29,9.92-1.55,5.22-3.16,10.87-3.42,16.37-.11,2.33,3.27,2.82,3.77.55.52-2.39.82-4.84,1.34-7.24.51-2.4,1.11-4.77,1.78-7.12,1.32-4.64,2.9-9.2,4.59-13.7.14-.37.28-.75.42-1.12.15-.07.29-.13.43-.2,1.95,4.37,4,8.69,6.18,12.94,2.65,5.17,5.47,10.23,8.43,15.2,1.57,2.63,5.49.17,3.9-2.46-4.79-7.93-9.2-16.12-13.19-24.55,4.64,2.38,9.35,4.62,14.2,6.48,2.66,1.02,5.36,1.94,8,3.02,1.36.56,2.68,1.18,4,1.86,1.47.75,2.82,1.18,4.12-.2.82-.86.97-2.7,0-3.53-.49-.42-1.11-.7-1.72-.72,0-.06-.15-.14-.44-.23-.18-.15-.47-.24-.68-.34-.56-.28-1.13-.54-1.71-.8-1.15-.52-2.31-1.01-3.47-1.47-2.26-.89-4.56-1.69-6.83-2.56-4.5-1.73-8.88-3.81-13.2-6.01-.03-.02-.06-.03-.09-.05,4.82-2.21,9.63-4.44,14.44-6.69,2.83-1.33,5.66-2.66,8.48-3.99Z"/>
  </g>
</svg>